<?xml version="1.0" encoding="utf-8"?>
<!-- Generator: Adobe Illustrator 16.0.0, SVG Export Plug-In . SVG Version: 6.00 Build 0)  -->
<!DOCTYPE svg PUBLIC "-//W3C//DTD SVG 1.1//EN" "http://www.w3.org/Graphics/SVG/1.1/DTD/svg11.dtd">
<svg version="1.1" id="Capa_1" xmlns="http://www.w3.org/2000/svg" xmlns:xlink="http://www.w3.org/1999/xlink" x="0px" y="0px"
	 width="1000px" height="1000px" viewBox="0 0 1000 1000" enable-background="new 0 0 1000 1000" xml:space="preserve">
<path fill="#00FFFF" d="M755.835,242.351c-47.962-45.836-121.884-46.327-165.11-1.097c-15.084,15.783-24.428,35.049-28.175,55.391
	c-4.798-4.404-11.132-7.241-18.193-7.618c-15.944-0.849-29.544,11.155-30.378,26.813c-0.645,12.084,6.512,22.809,17.142,27.464
	l126.048,129.542c4.732,9.166,13.972,15.637,24.909,16.22c16.496,0.879,30.59-11.968,31.482-28.692
	c0.438-8.228-2.406-15.856-7.366-21.594c21.711-4.172,42.096-14.675,58.212-31.538C807.633,362.009,803.795,288.187,755.835,242.351
	z"/>
<path fill="#0ED8D8" d="M706.193,436.779c0,0,76.861-61.439,88.084-114.359c0,0-4.406,52.849-19.481,70.142
	S737.887,433.058,706.193,436.779z"/>
<path fill="#0ED8D8" d="M659.769,477c0,0,50.356-9.625,48.606-34c0,0,15.875,29.875-11.409,42.934
	C682.14,493.029,669.283,488.261,659.769,477z"/>
<path fill="#F2F2F2" stroke="#0ED8D8" stroke-miterlimit="10" d="M653.519,278.33c1.164-1.114,3.767-4.79,4.96-5.936
	c1.193-1.145,5.867-5.626,5.867-5.626l5.993-4.566c0,0,5.796-3.336,8.105-2.013c2.308,1.324,2.319,6.525,1.626,7.728
	c-0.692,1.203-6.89,16.774-6.89,16.774s15.942-6.257,22.436-11.03c6.802-4.221,25.533-18.832,26.964-20.073
	c0,0,10.853-9.72,12.119-12.113c0,0,5.281-6.854-1.58-12.676l-5.932-4.216l-7.616-3.118c0,0-3.31-2.158-4.156-5.239l-2.72,6.549
	l-7.242-2.118c0,0-1.197-0.862,0.715-3.047c0,0,2.929-2.843,3.174-3.044c-2.965-0.08-6.684,0.046-12.076,2.648
	c-2.103,0.998-7.092,4.704-7.563,5.202c-0.298,0.013-4.827,4.648-7.869,8.536l-11.889,16.264c0,0,1.03,3.258-0.901,6.775
	l-4.155,5.558l-17.983,12.913c0,0-3.487,3.519-4.256,5.517c-0.769,1.996-1.226,7.53-0.992,7.507
	C641.889,285.461,648.273,282.469,653.519,278.33z M705.819,242.386l-2.181-5.816c3.11-0.682,6.36-0.61,8.353,2.716
	c1.991,3.327,0.494,7.715,0.494,7.715l-1.369,1.292L705.819,242.386z"/>
<path fill="#C2F2F1" d="M531.12,343.304c0,0,3.489-60.999,25.435-50.901c0,0-21.797-10.563-36.926,8.018
	S524.74,342.107,531.12,343.304z"/>
<path fill="#C2F2F1" d="M562.55,296.645c0,0,52.642-80.877,86.796-87.011c0,0-42.004,11.285-56.87,29.835
	S569.1,267.289,562.55,296.645z"/>
<path fill="none" stroke="#030000" stroke-width="3" stroke-miterlimit="10" d="M755.835,242.351
	c-47.962-45.836-121.884-46.327-165.11-1.097c-15.084,15.783-24.428,35.049-28.175,55.391c-4.798-4.404-11.132-7.241-18.193-7.618
	c-15.944-0.849-29.544,11.155-30.378,26.813c-0.645,12.084,6.512,22.809,17.142,27.464l126.048,129.542
	c4.732,9.167,13.972,15.637,24.909,16.22c16.496,0.879,30.59-11.968,31.482-28.692c0.438-8.228-2.406-15.856-7.366-21.594
	c21.711-4.172,42.096-14.675,58.212-31.538C807.633,362.009,803.795,288.187,755.835,242.351z"/>
<polyline fill="none" stroke="#000000" stroke-width="3" stroke-miterlimit="10" points="641.192,255.129 655.218,300.42 
	619.942,269.688 "/>
<polyline fill="none" stroke="#000000" stroke-width="3" stroke-miterlimit="10" points="750.276,364.777 706.944,350.523 
	736.078,386.425 "/>
<path fill="#FF0000" stroke="#000000" stroke-width="3" stroke-miterlimit="10" d="M656.035,354.613c0,0-0.553-19.662,14.53-18.68
	c15.083,0.982,11.745,23.518,11.745,23.518"/>
<line fill="none" stroke="#000000" stroke-width="3" stroke-miterlimit="10" x1="669.701" y1="359.642" x2="670.303" y2="346.067"/>
<path fill="none" stroke="#000000" stroke-width="3" stroke-miterlimit="10" d="M641.604,321.488c0,0-1.683,46.606,45.049,37.232"/>
<line fill="#FF0000" stroke="#000000" stroke-width="3" stroke-miterlimit="10" x1="656.035" y1="354.613" x2="682.311" y2="359.451"/>
<g>
	<radialGradient id="SVGID_1_" cx="249.2773" cy="731.8369" r="66.0739" gradientUnits="userSpaceOnUse">
		<stop  offset="0" style="stop-color:#F15A24"/>
		<stop  offset="1" style="stop-color:#F8AF3D"/>
	</radialGradient>
	<path fill="url(#SVGID_1_)" stroke="#000000" stroke-width="3" stroke-miterlimit="10" d="M212.682,777.211
		c-1.081,0.901-1.622,1.351-2.703,2.252c-1.325,0.875-2.526,1.425-2.526,1.426c0,0,4.203-0.912,5.894-2.309
		c0.829-0.894,1.241-1.341,2.067-2.237C214.669,776.021,213.762,776.31,212.682,777.211z"/>
	<radialGradient id="SVGID_2_" cx="249.2773" cy="731.8369" r="66.0739" gradientUnits="userSpaceOnUse">
		<stop  offset="0" style="stop-color:#F15A24"/>
		<stop  offset="1" style="stop-color:#F8AF3D"/>
	</radialGradient>
	<path fill="url(#SVGID_2_)" stroke="#000000" stroke-width="3" stroke-miterlimit="10" d="M209.927,669.122
		c-0.38,0.507-0.729,1.385-1.05,2.624c0.314,0.193,0.471,0.29,0.786,0.483c1.104-1.824,1.656-2.739,2.755-4.568
		C211.611,667.495,210.78,667.983,209.927,669.122z"/>
	<radialGradient id="SVGID_3_" cx="249.2773" cy="731.8369" r="66.0736" gradientUnits="userSpaceOnUse">
		<stop  offset="0" style="stop-color:#F15A24"/>
		<stop  offset="1" style="stop-color:#F8AF3D"/>
	</radialGradient>
	<path fill="url(#SVGID_3_)" stroke="#000000" stroke-width="3" stroke-miterlimit="10" d="M285.277,767.067
		c5.929-5.675,10.213-11.669,12.826-17.06c2.612-5.39,2.283-10.244-0.873-14.442c-21.053-22.317-42.104-44.637-63.161-66.95
		c-6.776-4.489-10.131-6.702-16.774-11.054c-2.752-0.151-5.06,0.218-6.943,1.085s-3.516,2.281-4.912,4.223
		c-0.986,1.827-1.48,2.739-2.472,4.562c0.298,2.578-0.531,6.25-2.51,10.981c-1.98,4.735-3.057,8.062-3.405,9.707
		c-0.542,2.562-0.869,4.706-0.478,6.134c0.392,1.429,1.266,2.847,2.628,4.269c0.947,0.988,1.42,1.485,2.367,2.474
		c0.953,0.589,1.431,0.884,2.387,1.476c19.322,20.515,38.649,41.024,57.974,61.536c-0.317,1.455-0.479,2.182-0.809,3.624
		c-0.353,1.007-0.919,1.784-1.699,2.344c-1.298,0.707-1.946,1.06-3.241,1.77c-1.216,0.652-1.822,0.981-3.036,1.637
		c-2.133-0.165-3.864-0.597-5.208-1.313c-1.436-1.499-2.155-2.249-3.591-3.748c-0.957-0.999-1.674-1.748-2.153-2.249
		c-0.615-0.643-0.923-0.965-1.538-1.607c-1.518-1.585-2.277-2.377-3.795-3.962c-2.598-2.712-5.378-4.279-8.294-4.664
		c-2.916-0.385-8.904,0.89-10.917,3.556c-0.766,1.014-1.61,3.511-3.128,4.854c-1.288,1.14-3.827,2.041-7.549,2.775
		c-3.724,0.734-6.13,1.668-7.276,2.724c-1.264,1.165-2.311,2.66-3.163,4.478c-1.227,2.508-1.849,3.757-3.109,6.23
		c-1.049,2.288-1.015,4.431-0.223,4.841c1.524,0.791,4.337,1.145,5.4,2.255c1.918,1.597,2.88,2.396,4.807,4.001
		c1.055,1.102,1.582,1.652,2.636,2.754c2.122,1.809,3.185,2.715,5.316,4.534c2.276,1.25,4.704,2.354,6.562,2.452
		c6.32,0.331,14.908-2.423,22.905-5.69c7.995-3.267,16.249-7.563,24.609-13.045C271.809,778.38,278.797,773.269,285.277,767.067z
		 M229.204,695.842c-4.092-2.806-7.643-4.368-9.894-4.071c-1.631,0.215-3.226,1.175-4.014,2.241
		c-0.985,1.333-1.82,4.259-2.552,4.776c-0.845,0.597-4.369-0.164-6.436-0.968c-2.786-1.284-4.169-1.916-6.921-3.164
		c-0.801-2.866,0.021-7.023,2.427-12.519c2.405-5.492,3.252-9.605,3.228-11.686c-0.021-1.706,0.898-3.938,2.319-5.7
		c1.403-1.741,3.069-3.057,4.534-3.896s3.042-0.521,4.312-0.063c3.321,1.197,7.97,2.904,11.301,6.382
		c6.243,6.517,9.275,15.096,8.687,25.307c0.875,1.455,1.311,2.179,2.18,3.628c0.483,1.635,1.568,3.219,1.54,3.301
		C239.914,699.41,233.297,698.648,229.204,695.842z M236.806,772.287c-2.574-0.116-3.852-0.167-6.393-0.249
		c-3.613-0.389-7.536,0.991-8.272,2.868c-0.425,1.082-0.379,3.104-0.888,4.146c-0.511,1.047-1.404,2.176-2.612,3.025
		c-1.231,0.867-2.859,1.641-3.41,1.513c-0.534-0.124-3.906-0.137-9.123,0.966c-5.174,1.094-8.705,0.607-9.376-0.99
		c-0.983-2.34,0.264-6.359,3.172-9.359c1.195-1.232,3.938-2.667,7.752-4.241c3.815-1.573,6.156-2.688,6.969-3.398
		c1.273-1.113,2.229-2.563,2.845-4.362c0.624-0.55,0.936-0.824,1.559-1.374c1.926-1.441,3.69-2.251,5.298-2.423
		c1.608-0.171,3.053,0.041,4.33,0.634c0.574,0.599,0.861,0.9,1.435,1.499c0.901,0.941,1.354,1.409,2.255,2.351
		c0.808,0.844,1.211,1.265,2.019,2.108c0.89,1.335,1.334,2.001,2.219,3.331C236.955,769.851,237.029,771.167,236.806,772.287z"/>
	<radialGradient id="SVGID_4_" cx="331.8457" cy="663.1279" r="86.0331" gradientUnits="userSpaceOnUse">
		<stop  offset="0" style="stop-color:#F15A24"/>
		<stop  offset="1" style="stop-color:#F8AF3D"/>
	</radialGradient>
	<path fill="url(#SVGID_4_)" stroke="#000000" stroke-width="3" stroke-miterlimit="10" d="M274.827,579.901
		c0.634,1.068,0.951,1.603,1.583,2.668c1.191,1.244,3.373,2.049,6.578,2.456c3.207,0.407,5.426,1.15,6.625,2.19
		c4.415,4.608,6.621,6.913,11.036,11.521c3.311,3.456,4.966,5.184,8.277,8.64c32.164,19.972,64.061,40.347,95.773,61.027
		c1.587,0.769,3.867,2.373,6.852,4.822c2.947,2.811,4.422,4.216,7.375,7.032c-4.81,3.505-7.217,5.254-12.038,8.747
		c-4.662,3.388-6.995,5.081-11.668,8.457c-3.689,2.104-5.532,3.157-9.213,5.269c-4.538-2.572-6.793-3.848-11.279-6.365
		c-6.458-4.035-11.144-6.329-14.116-6.953c-8.58,6.335-12.87,9.503-21.449,15.839c3.748,8.785,5.561,13.113,9.056,21.634
		c-2.849,2.438-4.278,3.654-7.141,6.078c-3.663,2.401-5.493,3.6-9.156,6.001c-2.866,1.879-4.3,2.82-7.166,4.699
		c-2.707,1.775-4.06,2.662-6.767,4.438c-1.404-1.466-3.322-4.481-5.811-9.109c-2.338-4.877-3.527-7.338-5.947-12.3
		c-15.963-31.389-32.521-62.445-49.506-93.291c-0.807-0.978-1.21-1.468-2.019-2.446c-1.725-1.26-2.587-1.887-4.306-3.139
		c-1.612-1.142-2.415-1.713-4.021-2.848c-0.634-1.076-0.952-1.612-1.588-2.691c-0.205-2.508,0.787-5.271,2.993-8.254
		c0.633-0.855,0.947-1.284,1.58-2.14c1.03-0.994,1.546-1.49,2.58-2.481c1.034,0.165,3.105-1.284,3.149-2.228
		c0.038-0.814-0.607-4.041,0.636-7.311c1.203-3.162,1.5-5.745,0.424-7.534c1.65-1.732,2.478-2.598,4.134-4.323
		c1.258-1.744,1.888-2.613,3.146-4.357c1.812-2.511,3.522-4.207,5.137-5.068C270.187,577.721,272.27,578.162,274.827,579.901z
		 M257.971,594.443c1.269,2.137,1.901,3.202,3.16,5.328c-0.455,0.608-0.683,0.91-1.137,1.519c-0.568,0.76-0.852,1.141-1.419,1.9
		c-0.397,0.668-0.597,1.003-0.995,1.67c1.23,1.961,1.268,3.688,0.122,5.198c-0.67,0.882-2.122,1.907-4.336,3.087
		c-2.216,1.181-3.742,2.354-4.594,3.493c-1.137,1.52-1.624,3.04-1.47,4.554c1.131,1.722,1.694,2.582,2.819,4.298
		c0.868,0.906,1.302,1.36,2.17,2.267c1.869-0.301,3.756-0.141,5.659,0.493c1.903,0.633,3.77,1.906,5.587,3.803
		c4.301,3.885,6.456,5.833,10.777,9.738c0.262-1.492,0.195-2.818-0.199-3.985c-1.011-1.51-1.517-2.27-2.532-3.783
		c-0.832-0.869-1.249-1.303-2.081-2.172c-1.665-1.738-2.719-3.115-3.169-4.137c-0.449-1.02-0.585-4.068-0.04-4.528
		c0.68-0.573,5.193,0.649,8.657,2.219c3.521,1.629,5.291,2.452,8.853,4.124c-1.426-1.488-2.992-2.106-3.027-2.146
		c-0.217-0.246,0.091-3.246-0.882-4.643c-0.931-0.431-1.398-0.646-2.326-1.074c-0.8-0.835-1.199-1.251-1.999-2.086
		c-0.571-0.597-0.893-1.385-0.971-2.37c0.421-0.512,0.633-0.767,1.055-1.278c4.41,2.431,6.629,3.66,11.097,6.151
		c2.842,1.608,8.504,2.424,8.504,2.424c0.037-0.099-2.217-3.148-2.857-6.164c-0.639-3.014-1.569-5.59-2.301-5.93
		c-1.331-0.618-3.933-0.72-4.914-1.744c-0.684-0.715-1.071-1.569-1.162-2.568c2.139,0.338,3.211,0.516,5.369,0.873
		c2.7,0.111,4.969,0.501,6.777,1.152c1.812,0.652,4.957,2.62,8.452,5.945c3.003,2.857,9.141,5.823,9.141,5.823
		c0.085-0.147-6.363-7.658-10.391-13.893c-4.026-6.233-7.295-10.662-9.736-13.21c-1.727-1.803-3.1-3.235-4.118-4.298
		c-1.525-1.592-5.768-4.119-7.096-3.671c-0.52,0.176-1.687,1.113-2.804,0.443c-0.845-0.883-1.269-1.325-2.114-2.208
		c-2.204-0.948-3.301-1.42-5.489-2.351c-2.067-0.805-5.337,0.133-5.928,1.598c-0.262,0.649-0.235,2.347-0.789,3.571
		c-1.254,0.855-1.882,1.285-3.131,2.146c-1.363,0.878-2.041,1.319-3.397,2.204C258.45,593.114,258.29,593.559,257.971,594.443z
		 M336.275,673.82c-0.546,0.783-0.818,1.171-1.367,1.952c-1.203,1.002-2.483,1.527-3.832,1.583
		c-1.352,0.057-2.297,0.142-2.845,0.246c-0.546,0.104-1.241,0.232-1.501,0.463c-0.683,0.604-1.033,1.854-1.084,2.25
		c0.498,1.602,0.744,2.398,1.232,3.991c0.978,1.292,1.467,1.938,2.442,3.228c1.121,1.17,2.573,1.899,4.37,2.194
		c0.757-2.052,1.132-3.081,1.872-5.151c0.691-2.662,1.568-4.453,2.66-5.343c0.97-0.79,2.277-1.226,3.929-1.31
		c-0.405-0.965-0.609-1.449-1.018-2.417C340.164,674.494,338.538,673.93,336.275,673.82z M317.131,662.969
		c0.12,1.198,0.599,3.088,1.418,5.656c1.409,2.371,2.111,3.552,3.506,5.909c1.773-0.351,2.662-0.519,4.446-0.857
		c2.419-0.45,4.1-1.336,5.019-2.67c-0.635-0.663-0.952-0.995-1.587-1.658C324.773,666.755,322.212,665.479,317.131,662.969z
		 M269.535,589.935c0.105,0.563-0.22,1.833-1.116,3.235c-1.413,2.213-2.119,5.567-2.119,5.567c-0.087,0.046-1.907-3.791-0.491-5.924
		c0.914-0.806,1.371-1.208,2.287-2.011C268.67,590.455,268.958,590.28,269.535,589.935z"/>
	<radialGradient id="SVGID_5_" cx="409.2793" cy="595.4521" r="94.6068" gradientUnits="userSpaceOnUse">
		<stop  offset="0" style="stop-color:#F15A24"/>
		<stop  offset="1" style="stop-color:#F8AF3D"/>
	</radialGradient>
	<path fill="url(#SVGID_5_)" stroke="#000000" stroke-width="3" stroke-miterlimit="10" d="M334.717,519.953
		c28.482,28.948,56.97,57.891,85.453,86.838c0.007-1.567,0.368-3.109,1.086-4.617c1.294-1.626,1.94-2.437,3.229-4.068
		c2.18-1.378,3.271-2.068,5.457-3.441c1.673-1.095,2.511-1.643,4.187-2.734c4.203,0.328,7.414-0.378,9.588-2.167
		c1.45-1.192,3.253-5.514,5.25-13.128c1.996-7.609,4.099-12.519,6.469-14.56c1.537-1.323,3.899-3.025,5.236-2.993
		c3.678,0.09,10.11,4.916,14.595,8.471c4.487,3.556,8.14,6.58,10.933,9.044c2.796,2.467,5.739,5.317,8.826,8.54
		c4.596,4.934,6.895,7.398,11.487,12.328c1.691,1.766,2.536,2.649,4.228,4.415c2.662,3.05,3.99,4.573,6.648,7.619
		c-1.571,1.743-2.359,2.611-3.938,4.347c-2.372,1.583-3.557,2.374-5.929,3.957c-3.242,2.164-4.866,3.247-8.108,5.411
		c-1.187,0.792-1.778,1.186-2.965,1.978c-0.791,0.527-1.58,1.056-2.371,1.583c-1.187,0.792-2.044,1.364-2.569,1.715
		c-1.503,1.003-2.252,1.504-3.755,2.507c-1.897,1.267-2.851,1.899-4.748,3.166c0.933,3.23,0.061,5.702-2.593,7.441
		c-1.156,0.417-1.733,0.626-2.887,1.045c-2.401-0.342-3.598-0.507-5.985-0.833c-16.659,10.793-33.298,21.616-49.923,32.461
		c-35.791-37.359-71.577-74.722-107.365-112.083c-4.717-5.466-7.08-8.203-11.815-13.688c-1.121-6.355-1.517-11.278-1.113-14.691
		c0.403-3.411,1.287-6.102,2.677-8.034c1.376-1.404,2.064-2.106,3.445-3.507c3.762-0.403,5.658-0.588,9.476-0.934
		c0.95-0.135,1.992-0.97,3.125-2.493c0.566-0.762,1.059-1.648,1.416-1.904c0.978-0.702,3.99-0.176,7.045,1.098
		C331.562,519.313,333.639,519.959,334.717,519.953z M303.165,532.688c-0.522,2.658-0.544,5.637-0.073,8.925
		s2.104,6.565,4.334,7.705c2.771,1.415,7.435,2.683,11.393,4.785c4.098,2.248,6.158,3.385,10.299,5.678
		c0.932-0.354,1.366-1.115,1.297-2.298c-0.023-1.485-0.037-2.229-0.066-3.722c0.707-1.92,1.059-2.88,1.758-4.809
		c0.885-1.069,2.098-1.24,3.643-0.516c2.278,2.378,3.417,3.567,5.695,5.945c2.761,2.883,5.43,4.988,8.016,6.335
		c2.588,1.349,5.521,1.706,8.824,1.094c-8.446-13.281-16.933-26.537-25.456-39.77c-2.144-1.107-4.211-1.403-6.191-0.882
		c-1.984,0.522-3.806,2.405-5.545,4.194c-1.279,1.316-4.297,1.942-7.952,1.947c-3.653,0.005-6.294,0.9-7.962,2.627
		C304.373,531.033,303.97,531.582,303.165,532.688z M310.519,528.525c-0.713,1.827-1.07,2.737-1.789,4.559
		c-1.175,2.156-1.739,5.793-1.842,5.859c-0.231,0.149-1.946-2.146-1.553-4.669c0.505-1.367,0.757-2.053,1.258-3.424
		C307.999,528.935,309.305,528.162,310.519,528.525z M461.691,563.867c-1.074,0.909-1.612,1.362-2.686,2.271
		c-2.269,1.92-4.158,6.716-5.826,14.22c-1.67,7.507-3.558,11.963-5.506,13.534c-2.317,1.868-9.447,0.607-10.48,1.237
		c-0.241,0.146-0.715,1.623-1.441,2.219c-1.674,0.959-2.508,1.438-4.179,2.4c-2.426,0.628-4.055,1.299-4.896,1.995
		c-1.446,1.196-1.793,3.283-1.636,5.737c0.107,1.672,0.879,3.849,2.667,6.165c1.364,1.424,2.045,2.138,3.409,3.562
		c1.66,1.191,2.491,1.788,4.155,2.984c0.788,0.958,1.182,1.435,1.97,2.393c6.147-0.57,12.991,1.042,20.549,4.873
		c8.325,4.36,12.524,6.582,21.003,11.103c-0.119-1.884-0.182-2.828-0.313-4.725c-2.888-3.015-4.222-6.664-4.063-11.012
		c0.112-5.566,0.139-8.376,0.146-14.053c0.727-1.948,1.588-3.302,2.604-4.049c1.521-1.119,4.958-1.082,10.38,0.181
		c5.423,1.262,11.453,1.137,11.858,0.365c0.599-1.139-2.227-6.772-4.523-9.961c-2.294-3.185-3.922-5.392-4.867-6.603
		c-0.946-1.212-2.691-3.151-5.24-5.813c-2.889-2.881-4.333-4.32-7.219-7.198c-3.025-3.022-4.537-4.533-7.56-7.554
		C466.663,566.419,465.002,565.564,461.691,563.867z M465.74,616.136c-0.029,0.532-4.914,1.586-8.968,0.621
		c-4.057-0.966-6.938-1.436-8.673-1.444c-0.435-0.995-0.653-1.491-1.091-2.489c1.851,0.806,4.981,1.137,9.419,1.035
		C460.867,613.757,465.759,615.796,465.74,616.136z M481.99,587.09c-1.188-1.24-3.763-1.781-7.68-1.591
		c-3.921,0.19-6.525,0.101-7.21-0.422c-0.758-0.578-1.301-4.312-0.202-5.961c0.761-1.142,4.769-0.319,8.812,2.769
		C478.218,583.963,479.474,585.005,481.99,587.09z"/>
	<radialGradient id="SVGID_6_" cx="471.2949" cy="506.4258" r="98.7281" gradientUnits="userSpaceOnUse">
		<stop  offset="0" style="stop-color:#F15A24"/>
		<stop  offset="1" style="stop-color:#F8AF3D"/>
	</radialGradient>
	<path fill="url(#SVGID_6_)" stroke="#000000" stroke-width="3" stroke-miterlimit="10" d="M400.55,408.02
		c13.213,13.003,26.427,26.007,39.638,39.013c42.6,44.473,85.201,88.943,127.799,133.417c-0.152,1.601-0.229,2.397-0.39,3.989
		c-11.544,7.57-23.088,15.142-34.634,22.709c-2.124-1.27-3.186-1.902-5.302-3.164c-47.274-49.812-94.56-99.614-141.836-149.423
		c-4.71-6.72-7.965-12.037-9.744-15.923s-1.954-8.014-0.523-12.388c1.28-0.152,1.92-0.228,3.206-0.375
		c0.893-1.233,1.339-1.849,2.232-3.082c1.33-2.536,1.995-3.804,3.319-6.346c1.449-2.954,2.17-4.434,3.61-7.397
		c1.296-1.803,2.9-2.892,4.821-3.255C394.665,405.431,397.264,406.17,400.55,408.02z M380.722,427.243
		c2.156,0.897,3.238,1.35,5.406,2.26c-0.713,2.369-1.072,3.55-1.794,5.908c-0.589,0.547-1.43,0.346-2.52-0.602
		c-1-1.044-1.502-1.567-2.502-2.611c-0.156,3.221,0.423,6.249,1.736,9.084c1.315,2.841,3.201,5.542,5.678,8.129
		c2.615,2.73,6.253,5.739,10.945,9.057c3.372,2.437,5.062,3.661,8.45,6.115c1.937-0.458,3.808-0.196,5.604,0.775
		c1.829,1.368,2.745,2.054,4.579,3.427c2.222,3.132,3.329,4.694,5.54,7.814c2.023,2.789,3.034,4.179,5.049,6.959
		c1.528,1.596,2.987,2.74,4.388,3.44c1.401,0.702,6.24,1.113,6.366,0.924c0.158-0.238-1.621-3.43-3.175-5.924
		c-1.07-1.523-1.606-2.286-2.68-3.813c-1.957-1.637-2.934-2.455-4.887-4.088c-1.961-2.047-3.501-3.655-4.625-4.828
		c-1.497-1.968-2.247-2.952-3.747-4.924c-1.084-1.83-2.25-4.917-1.748-6.366c0.509-1.468,3.743-2.377,6.536-1.556
		c5.504,2.253,8.274,3.399,13.85,5.727c-2.57-7.63-6.823-15.648-12.733-23.94c-6.511-9.135-13.969-19.033-21.497-25.667
		c-2.218-1.955-4.938-2.786-6.719-2.616c-1.78,0.17-3.439,1.146-4.986,2.915c-1.401,1.92-2.103,2.88-3.504,4.8
		c-1.086,2.52-1.631,3.778-2.726,6.29C383.691,425.723,382.265,426.824,380.722,427.243z M406.173,429.792
		c0.431,0.449,0.646,0.675,1.076,1.125c-1.979,1.724-2.967,2.585-4.939,4.315c-1.933,0.689-2.897,1.037-4.818,1.738
		c-0.498-2.322-0.27-4.114,0.693-5.367C399.818,429.477,402.472,428.862,406.173,429.792z"/>
	<radialGradient id="SVGID_7_" cx="536.2178" cy="447.2192" r="127.1209" gradientUnits="userSpaceOnUse">
		<stop  offset="0" style="stop-color:#F15A24"/>
		<stop  offset="1" style="stop-color:#F8AF3D"/>
	</radialGradient>
	<path fill="url(#SVGID_7_)" stroke="#000000" stroke-width="3" stroke-miterlimit="10" d="M478.716,322.535
		c3.563,0.775,8.818,2.883,15.426,6.619c8.274,4.841,12.44,7.29,20.823,12.243c11.613,11.113,23.234,22.218,34.849,33.33
		c13.252,13.833,26.503,27.668,39.755,41.501c10.956,11.433,21.908,22.869,32.861,34.305c10.779,11.252,21.559,22.505,32.336,33.759
		c4.02,6.004,6.981,11.574,8.869,16.701c1.89,5.133,2.338,9.77,1.353,13.927c-4.688,5.391-7.048,8.071-11.796,13.399
		c-23.08,14.574-46.141,29.181-69.175,43.827c-44.986-45.952-89.972-91.905-134.965-137.851c-1.315,0.208-2.77-0.408-4.361-1.848
		c-1.723-2.34-2.585-3.512-4.313-5.857c-0.988-0.625-1.482-0.937-2.468-1.561c-2.534-2.646-5.884-5.24-10.018-7.75
		c-4.133-2.511-7.126-4.449-8.999-5.84c-1.869-1.389-3.775-2.867-5.393-4.447c-2.22-2.17-3.912-4.559-4.617-6.518
		c-1.095-3.041-1.604-6.81-1.875-10.598c-0.27-3.781,0.279-6.657,1.674-8.595c1.486-2.063,4.897-1.647,6.961-1.882
		c0.934-0.106,4.128-0.782,7.944-0.857c3.292-0.065,6.078-0.732,6.944-1.57c0.959-0.929,0.527-4.189-1.311-8.819
		c0.679-0.919,1.019-1.378,1.698-2.297c2.544-2.089,3.818-3.131,6.375-5.208c3.22-2.062,5.41-3.84,6.551-5.367
		c1.327-1.775,2.03-3.865,2.1-6.274c0.07-2.411-2.322-6.611-3.366-10.632c-0.666-2.565,0.358-5.845,1.566-7.524
		c1.576-2.192,4.356-3.306,8.371-3.294c4.011,0.012,9.032,0.856,12.916,3.147c2.169,1.279,4.102,1.795,5.514,0.33
		c0.561-1.449,0.839-2.176,1.396-3.627c0.672-1.603,1.008-2.404,1.677-4.01C474.877,322.263,476.496,322.052,478.716,322.535z
		 M457.835,333.006c-2.803,0.442-4.199,0.669-6.98,1.133c-1.827,0.113-3.246,0.877-4.268,2.279
		c-1.208,1.657-1.417,4.979,0.063,8.148c1.673,3.585,3.611,6.861,3.76,9.148c0.149,2.291-0.38,4.601-1.584,6.932
		c-2.597,2.046-3.891,3.074-6.475,5.134c-2.564,1.81-3.844,2.717-6.394,4.542c-0.516,0.686-0.774,1.029-1.29,1.714
		c-0.287,0.381-0.429,0.572-0.716,0.953c2.854,5.476,3.532,9.128,2.083,11.009c-0.678,0.879-4.359,1.344-10.93,1.509
		c-6.57,0.165-11.981,1.617-12.625,3.135c-0.544,1.283,0.481,4.58,1.557,7.062c2.108,2.744,3.161,4.115,5.263,6.853
		c1.795,1.874,2.692,2.812,4.487,4.686s2.692,2.809,4.487,4.683c1.077,1.124,1.615,1.688,2.692,2.812
		c1.943-0.361,3.975,0.037,6.097,1.189c2.536,2.011,3.806,3.017,6.349,5.035c2.168,2.264,3.251,3.396,5.42,5.659
		c2.259,2.358,3.765,3.931,4.517,4.716c-0.727-0.353-1.088-0.529-1.814-0.881c-1.954-2.04-2.94-3.966-2.955-5.79
		c-0.015-1.817,0.481-3.332,1.496-4.529c2.19-1.774,3.287-2.659,5.483-4.425c-2.449-2.557-3.85-6.1-4.231-10.674
		c-0.382-4.569-0.914-7.892-1.565-9.925c0.459-1.416,0.688-2.124,1.144-3.542c0.889-1.102,2.481-1.471,4.787-1.093
		c2.767,0.453,4.156,0.686,6.942,1.159c-0.563-3.159-0.851-4.746-1.435-7.927c-0.376-2.422,0.493-5.808,1.503-6.21
		c3.434-1.368,14.382,1.009,18.431-1.058c2.146-1.095,1.882-4.803-1.297-9.475c-3.177-4.67-4.975-7.899-5.374-9.669
		c2.072,0.133,3.11,0.202,5.192,0.346c2.875-0.155,5.267,0.313,7.166,1.391c0.459-4.393,0.677-6.599,1.099-11.03
		c2.989-1.389,6.728-0.981,11.228,1.231c7.798,4.351,11.723,6.553,19.621,11.01c-3.225-3.502-4.837-5.254-8.063-8.758
		c-3.424-3.575-6.048-6.771-7.922-8.944c-4.447-5.154-9.487-8.769-12.994-10.869c-3.88-2.324-11.703-3.474-12.402-2.508
		c-0.584,0.807-0.023,5.362-1.179,6.852c-1.636,2.109-4.19,2.756-7.636,1.966C465.124,337.194,461.549,335.541,457.835,333.006z
		 M481.102,402.121c31.783,32.841,63.572,65.676,95.347,98.524c0.572-1.908,1.844-3.653,3.83-5.227
		c1.639-1.298,2.457-1.949,4.096-3.247c1.713-1.356,2.568-2.033,4.281-3.39c1.859-1.474,3.046-3.312,3.547-5.526
		c-29.951-30.471-59.895-60.95-89.845-91.423c-3.26-2.737-6.196-3.962-8.794-3.672c-2.6,0.29-4.854,1.551-6.783,3.767
		c-1.23,2.052-1.846,3.078-3.08,5.125C482.665,399.083,482.145,400.097,481.102,402.121z M599.361,497.839
		c-3.586-0.595-8.533,1.693-10.892,3.513c-0.828,1.166-1.243,1.746-2.073,2.909c0.866,0.903,1.3,1.358,2.166,2.262
		c1.123,1.173,2.043,3.151,2.748,5.915c0.707,2.769,2.057,4.966,4.063,6.609c2.01,1.646,4.493,3.165,7.45,4.563
		c2.962,1.399,6.623,3.006,7.874,2.639c1.116-0.328,1.436-3.687-0.257-7.033c-2.354-3.27-3.532-4.908-5.897-8.189
		c1.848-0.778,5.343-0.175,10.528,1.857c5.189,2.034,11.499,2.193,11.499,2.193c0.089-0.302-2.884-3.009-3.711-3.872
		c-1.646-1.719-2.823-3.062-3.522-4.019c-2.047-2.543-3.072-3.811-5.123-6.358c-1.699-1.097-4.127-1.654-7.26-1.658
		C603.821,499.165,600.9,498.094,599.361,497.839z"/>
</g>
</svg>
