<?xml version="1.0" encoding="utf-8"?>
<!-- Generator: Adobe Illustrator 16.0.0, SVG Export Plug-In . SVG Version: 6.00 Build 0)  -->
<!DOCTYPE svg PUBLIC "-//W3C//DTD SVG 1.1//EN" "http://www.w3.org/Graphics/SVG/1.1/DTD/svg11.dtd">
<svg version="1.1" xmlns="http://www.w3.org/2000/svg" xmlns:xlink="http://www.w3.org/1999/xlink" x="0px" y="0px" width="1000px"
	 height="1000px" viewBox="0 0 1000 1000" enable-background="new 0 0 1000 1000" xml:space="preserve">
<g id="Capa_5">
</g>
<g id="Capa_6">
	<path fill="#00FFFF" d="M764.835,265.351c-47.962-45.836-121.884-46.327-165.11-1.097c-15.084,15.783-24.428,35.049-28.175,55.391
		c-4.798-4.404-11.132-7.241-18.193-7.618c-15.944-0.849-29.544,11.155-30.378,26.813c-0.645,12.084,6.512,22.809,17.142,27.464
		l126.048,129.542c4.732,9.166,13.972,15.637,24.909,16.22c16.496,0.879,30.59-11.968,31.482-28.692
		c0.438-8.228-2.406-15.856-7.366-21.594c21.711-4.172,42.096-14.675,58.212-31.538
		C816.633,385.009,812.795,311.187,764.835,265.351z"/>
</g>
<g id="Capa_7">
	<path fill="#0ED8D8" d="M715.193,459.779c0,0,76.861-61.439,88.084-114.359c0,0-4.406,52.849-19.481,70.142
		S746.887,456.058,715.193,459.779z"/>
	<path fill="#0ED8D8" d="M668.769,500c0,0,50.356-9.625,48.606-34c0,0,15.875,29.875-11.409,42.934
		C691.14,516.029,678.283,511.261,668.769,500z"/>
	<path fill="#F2F2F2" stroke="#0ED8D8" stroke-miterlimit="10" d="M662.519,301.08c1.164-1.114,3.767-4.79,4.96-5.936
		c1.193-1.145,5.867-5.626,5.867-5.626l5.993-4.566c0,0,5.796-3.336,8.105-2.013c2.308,1.324,2.319,6.525,1.626,7.728
		c-0.692,1.203-6.89,16.774-6.89,16.774s15.942-6.257,22.436-11.03c6.802-4.221,25.533-18.832,26.964-20.073
		c0,0,10.853-9.72,12.119-12.113c0,0,5.281-6.854-1.58-12.676l-5.932-4.216l-7.616-3.118c0,0-3.31-2.158-4.156-5.239l-2.72,6.549
		l-7.242-2.118c0,0-1.197-0.862,0.715-3.047c0,0,2.929-2.843,3.174-3.044c-2.965-0.08-6.684,0.046-12.076,2.648
		c-2.103,0.998-7.092,4.704-7.563,5.202c-0.298,0.013-4.827,4.648-7.869,8.536l-11.889,16.264c0,0,1.03,3.258-0.901,6.775
		l-4.155,5.558l-17.983,12.913c0,0-3.487,3.519-4.256,5.517c-0.769,1.996-1.226,7.53-0.992,7.507
		C650.889,308.211,657.273,305.219,662.519,301.08z M714.819,265.136l-2.181-5.816c3.11-0.682,6.36-0.61,8.353,2.716
		c1.991,3.327,0.494,7.715,0.494,7.715l-1.369,1.292L714.819,265.136z"/>
	<path fill="#C2F2F1" d="M540.12,366.304c0,0,3.489-60.999,25.435-50.901c0,0-21.797-10.563-36.926,8.018
		S533.74,365.107,540.12,366.304z"/>
	<path fill="#C2F2F1" d="M571.55,319.645c0,0,52.642-80.877,86.796-87.011c0,0-42.004,11.285-56.87,29.835
		S578.1,290.289,571.55,319.645z"/>
</g>
<g id="Capa_3">
	<path fill="none" stroke="#030000" stroke-width="3" stroke-miterlimit="10" d="M764.835,265.351
		c-47.962-45.836-121.884-46.327-165.11-1.097c-15.084,15.783-24.428,35.049-28.175,55.391c-4.798-4.404-11.132-7.241-18.193-7.618
		c-15.944-0.849-29.544,11.155-30.378,26.813c-0.645,12.084,6.512,22.809,17.142,27.464l126.048,129.542
		c4.732,9.167,13.972,15.637,24.909,16.22c16.496,0.879,30.59-11.968,31.482-28.692c0.438-8.228-2.406-15.856-7.366-21.594
		c21.711-4.172,42.096-14.675,58.212-31.538C816.633,385.009,812.795,311.187,764.835,265.351z"/>
</g>
<g id="Capa_4">
	<polyline fill="none" stroke="#000000" stroke-width="3" stroke-miterlimit="10" points="650.192,278.129 664.218,323.42 
		628.942,292.688 	"/>
	<polyline fill="none" stroke="#000000" stroke-width="3" stroke-miterlimit="10" points="759.276,387.777 715.944,373.523 
		745.078,409.425 	"/>
	<path fill="#FF0000" stroke="#000000" stroke-width="3" stroke-miterlimit="10" d="M665.035,377.613c0,0-0.553-19.662,14.53-18.68
		c15.083,0.982,11.745,23.518,11.745,23.518"/>
	
		<line fill="none" stroke="#000000" stroke-width="3" stroke-miterlimit="10" x1="678.701" y1="382.642" x2="679.303" y2="369.067"/>
	<path fill="none" stroke="#000000" stroke-width="3" stroke-miterlimit="10" d="M650.604,344.488c0,0-1.683,46.606,45.049,37.232"
		/>
	
		<line fill="#FF0000" stroke="#000000" stroke-width="3" stroke-miterlimit="10" x1="665.035" y1="377.613" x2="691.311" y2="382.451"/>
</g>
<g id="Capa_1">
	<g>
		<radialGradient id="SVGID_1_" cx="258.2773" cy="754.8369" r="66.0739" gradientUnits="userSpaceOnUse">
			<stop  offset="0" style="stop-color:#F15A24"/>
			<stop  offset="1" style="stop-color:#F8AF3D"/>
		</radialGradient>
		<path fill="url(#SVGID_1_)" stroke="#000000" stroke-width="3" stroke-miterlimit="10" d="M221.682,800.211
			c-1.081,0.901-1.622,1.351-2.703,2.252c-1.325,0.875-2.526,1.425-2.526,1.426c0,0,4.203-0.912,5.894-2.309
			c0.829-0.894,1.241-1.341,2.067-2.237C223.669,799.021,222.762,799.31,221.682,800.211z"/>
		<radialGradient id="SVGID_2_" cx="258.2773" cy="754.8369" r="66.0739" gradientUnits="userSpaceOnUse">
			<stop  offset="0" style="stop-color:#F15A24"/>
			<stop  offset="1" style="stop-color:#F8AF3D"/>
		</radialGradient>
		<path fill="url(#SVGID_2_)" stroke="#000000" stroke-width="3" stroke-miterlimit="10" d="M218.927,692.122
			c-0.38,0.507-0.729,1.385-1.05,2.624c0.314,0.193,0.471,0.29,0.786,0.483c1.104-1.824,1.656-2.739,2.755-4.568
			C220.611,690.495,219.78,690.983,218.927,692.122z"/>
		<radialGradient id="SVGID_3_" cx="258.2773" cy="754.8369" r="66.0736" gradientUnits="userSpaceOnUse">
			<stop  offset="0" style="stop-color:#F15A24"/>
			<stop  offset="1" style="stop-color:#F8AF3D"/>
		</radialGradient>
		<path fill="url(#SVGID_3_)" stroke="#000000" stroke-width="3" stroke-miterlimit="10" d="M294.277,790.067
			c5.929-5.675,10.213-11.669,12.826-17.06c2.612-5.39,2.283-10.244-0.873-14.442c-21.053-22.317-42.104-44.637-63.161-66.95
			c-6.776-4.489-10.131-6.702-16.774-11.054c-2.752-0.151-5.06,0.218-6.943,1.085s-3.516,2.281-4.912,4.223
			c-0.986,1.827-1.48,2.739-2.472,4.562c0.298,2.578-0.531,6.25-2.51,10.981c-1.98,4.735-3.057,8.062-3.405,9.707
			c-0.542,2.562-0.869,4.706-0.478,6.134c0.392,1.429,1.266,2.847,2.628,4.269c0.947,0.988,1.42,1.485,2.367,2.474
			c0.953,0.589,1.431,0.884,2.387,1.476c19.322,20.515,38.649,41.024,57.974,61.536c-0.317,1.455-0.479,2.182-0.809,3.624
			c-0.353,1.007-0.919,1.784-1.699,2.344c-1.298,0.707-1.946,1.06-3.241,1.77c-1.216,0.652-1.822,0.981-3.036,1.637
			c-2.133-0.165-3.864-0.597-5.208-1.313c-1.436-1.499-2.155-2.249-3.591-3.748c-0.957-0.999-1.674-1.748-2.153-2.249
			c-0.615-0.643-0.923-0.965-1.538-1.607c-1.518-1.585-2.277-2.377-3.795-3.962c-2.598-2.712-5.378-4.279-8.294-4.664
			c-2.916-0.385-8.904,0.89-10.917,3.556c-0.766,1.014-1.61,3.511-3.128,4.854c-1.288,1.14-3.827,2.041-7.549,2.775
			c-3.724,0.734-6.13,1.668-7.276,2.724c-1.264,1.165-2.311,2.66-3.163,4.478c-1.227,2.508-1.849,3.757-3.109,6.23
			c-1.049,2.288-1.015,4.431-0.223,4.841c1.524,0.791,4.337,1.145,5.4,2.255c1.918,1.597,2.88,2.396,4.807,4.001
			c1.055,1.102,1.582,1.652,2.636,2.754c2.122,1.809,3.185,2.715,5.316,4.534c2.276,1.25,4.704,2.354,6.562,2.452
			c6.32,0.331,14.908-2.423,22.905-5.69c7.995-3.267,16.249-7.563,24.609-13.045C280.809,801.38,287.797,796.269,294.277,790.067z
			 M238.204,718.842c-4.092-2.806-7.643-4.368-9.894-4.071c-1.631,0.215-3.226,1.175-4.014,2.241
			c-0.985,1.333-1.82,4.259-2.552,4.776c-0.845,0.597-4.369-0.164-6.436-0.968c-2.786-1.284-4.169-1.916-6.921-3.164
			c-0.801-2.866,0.021-7.023,2.427-12.519c2.405-5.492,3.252-9.605,3.228-11.686c-0.021-1.706,0.898-3.938,2.319-5.7
			c1.403-1.741,3.069-3.057,4.534-3.896s3.042-0.521,4.312-0.063c3.321,1.197,7.97,2.904,11.301,6.382
			c6.243,6.517,9.275,15.096,8.687,25.307c0.875,1.455,1.311,2.179,2.18,3.628c0.483,1.635,1.568,3.219,1.54,3.301
			C248.914,722.41,242.297,721.648,238.204,718.842z M245.806,795.287c-2.574-0.116-3.852-0.167-6.393-0.249
			c-3.613-0.389-7.536,0.991-8.272,2.868c-0.425,1.082-0.379,3.104-0.888,4.146c-0.511,1.047-1.404,2.176-2.612,3.025
			c-1.231,0.867-2.859,1.641-3.41,1.513c-0.534-0.124-3.906-0.137-9.123,0.966c-5.174,1.094-8.705,0.607-9.376-0.99
			c-0.983-2.34,0.264-6.359,3.172-9.359c1.195-1.232,3.938-2.667,7.752-4.241c3.815-1.573,6.156-2.688,6.969-3.398
			c1.273-1.113,2.229-2.563,2.845-4.362c0.624-0.55,0.936-0.824,1.559-1.374c1.926-1.441,3.69-2.251,5.298-2.423
			c1.608-0.171,3.053,0.041,4.33,0.634c0.574,0.599,0.861,0.9,1.435,1.499c0.901,0.941,1.354,1.409,2.255,2.351
			c0.808,0.844,1.211,1.265,2.019,2.108c0.89,1.335,1.334,2.001,2.219,3.331C245.955,792.851,246.029,794.167,245.806,795.287z"/>
		<radialGradient id="SVGID_4_" cx="340.8457" cy="686.1279" r="86.0331" gradientUnits="userSpaceOnUse">
			<stop  offset="0" style="stop-color:#F15A24"/>
			<stop  offset="1" style="stop-color:#F8AF3D"/>
		</radialGradient>
		<path fill="url(#SVGID_4_)" stroke="#000000" stroke-width="3" stroke-miterlimit="10" d="M283.827,602.901
			c0.634,1.068,0.951,1.603,1.583,2.668c1.191,1.244,3.373,2.049,6.578,2.456c3.207,0.407,5.426,1.15,6.625,2.19
			c4.415,4.608,6.621,6.913,11.036,11.521c3.311,3.456,4.966,5.184,8.277,8.64c32.164,19.972,64.061,40.347,95.773,61.027
			c1.587,0.769,3.867,2.373,6.852,4.822c2.947,2.811,4.422,4.216,7.375,7.032c-4.81,3.505-7.217,5.254-12.038,8.747
			c-4.662,3.388-6.995,5.081-11.668,8.457c-3.689,2.104-5.532,3.157-9.213,5.269c-4.538-2.572-6.793-3.848-11.279-6.365
			c-6.458-4.035-11.144-6.329-14.116-6.953c-8.58,6.335-12.87,9.503-21.449,15.839c3.748,8.785,5.561,13.113,9.056,21.634
			c-2.849,2.438-4.278,3.654-7.141,6.078c-3.663,2.401-5.493,3.6-9.156,6.001c-2.866,1.879-4.3,2.82-7.166,4.699
			c-2.707,1.775-4.06,2.662-6.767,4.438c-1.404-1.466-3.322-4.481-5.811-9.109c-2.338-4.877-3.527-7.338-5.947-12.3
			c-15.963-31.389-32.521-62.445-49.506-93.291c-0.807-0.978-1.21-1.468-2.019-2.446c-1.725-1.26-2.587-1.887-4.306-3.139
			c-1.612-1.142-2.415-1.713-4.021-2.848c-0.634-1.076-0.952-1.612-1.588-2.691c-0.205-2.508,0.787-5.271,2.993-8.254
			c0.633-0.855,0.947-1.284,1.58-2.14c1.03-0.994,1.546-1.49,2.58-2.481c1.034,0.165,3.105-1.284,3.149-2.228
			c0.038-0.814-0.607-4.041,0.636-7.311c1.203-3.162,1.5-5.745,0.424-7.534c1.65-1.732,2.478-2.598,4.134-4.323
			c1.258-1.744,1.888-2.613,3.146-4.357c1.812-2.511,3.522-4.207,5.137-5.068C279.187,600.721,281.27,601.162,283.827,602.901z
			 M266.971,617.443c1.269,2.137,1.901,3.202,3.16,5.328c-0.455,0.608-0.683,0.91-1.137,1.519c-0.568,0.76-0.852,1.141-1.419,1.9
			c-0.397,0.668-0.597,1.003-0.995,1.67c1.23,1.961,1.268,3.688,0.122,5.198c-0.67,0.882-2.122,1.907-4.336,3.087
			c-2.216,1.181-3.742,2.354-4.594,3.493c-1.137,1.52-1.624,3.04-1.47,4.554c1.131,1.722,1.694,2.582,2.819,4.298
			c0.868,0.906,1.302,1.36,2.17,2.267c1.869-0.301,3.756-0.141,5.659,0.493c1.903,0.633,3.77,1.906,5.587,3.803
			c4.301,3.885,6.456,5.833,10.777,9.738c0.262-1.492,0.195-2.818-0.199-3.985c-1.011-1.51-1.517-2.27-2.532-3.783
			c-0.832-0.869-1.249-1.303-2.081-2.172c-1.665-1.738-2.719-3.115-3.169-4.137c-0.449-1.02-0.585-4.068-0.04-4.528
			c0.68-0.573,5.193,0.649,8.657,2.219c3.521,1.629,5.291,2.452,8.853,4.124c-1.426-1.488-2.992-2.106-3.027-2.146
			c-0.217-0.246,0.091-3.246-0.882-4.643c-0.931-0.431-1.398-0.646-2.326-1.074c-0.8-0.835-1.199-1.251-1.999-2.086
			c-0.571-0.597-0.893-1.385-0.971-2.37c0.421-0.512,0.633-0.767,1.055-1.278c4.41,2.431,6.629,3.66,11.097,6.151
			c2.842,1.608,8.504,2.424,8.504,2.424c0.037-0.099-2.217-3.148-2.857-6.164c-0.639-3.014-1.569-5.59-2.301-5.93
			c-1.331-0.618-3.933-0.72-4.914-1.744c-0.684-0.715-1.071-1.569-1.162-2.568c2.139,0.338,3.211,0.516,5.369,0.873
			c2.7,0.111,4.969,0.501,6.777,1.152c1.812,0.652,4.957,2.62,8.452,5.945c3.003,2.857,9.141,5.823,9.141,5.823
			c0.085-0.147-6.363-7.658-10.391-13.893c-4.026-6.233-7.295-10.662-9.736-13.21c-1.727-1.803-3.1-3.235-4.118-4.298
			c-1.525-1.592-5.768-4.119-7.096-3.671c-0.52,0.176-1.687,1.113-2.804,0.443c-0.845-0.883-1.269-1.325-2.114-2.208
			c-2.204-0.948-3.301-1.42-5.489-2.351c-2.067-0.805-5.337,0.133-5.928,1.598c-0.262,0.649-0.235,2.347-0.789,3.571
			c-1.254,0.855-1.882,1.285-3.131,2.146c-1.363,0.878-2.041,1.319-3.397,2.204C267.45,616.114,267.29,616.559,266.971,617.443z
			 M345.275,696.82c-0.546,0.783-0.818,1.171-1.367,1.952c-1.203,1.002-2.483,1.527-3.832,1.583
			c-1.352,0.057-2.297,0.142-2.845,0.246c-0.546,0.104-1.241,0.232-1.501,0.463c-0.683,0.604-1.033,1.854-1.084,2.25
			c0.498,1.602,0.744,2.398,1.232,3.991c0.978,1.292,1.467,1.938,2.442,3.228c1.121,1.17,2.573,1.899,4.37,2.194
			c0.757-2.052,1.132-3.081,1.872-5.151c0.691-2.662,1.568-4.453,2.66-5.343c0.97-0.79,2.277-1.226,3.929-1.31
			c-0.405-0.965-0.609-1.449-1.018-2.417C349.164,697.494,347.538,696.93,345.275,696.82z M326.131,685.969
			c0.12,1.198,0.599,3.088,1.418,5.656c1.409,2.371,2.111,3.552,3.506,5.909c1.773-0.351,2.662-0.519,4.446-0.857
			c2.419-0.45,4.1-1.336,5.019-2.67c-0.635-0.663-0.952-0.995-1.587-1.658C333.773,689.755,331.212,688.479,326.131,685.969z
			 M278.535,612.935c0.105,0.563-0.22,1.833-1.116,3.235c-1.413,2.213-2.119,5.567-2.119,5.567
			c-0.087,0.046-1.907-3.791-0.491-5.924c0.914-0.806,1.371-1.208,2.287-2.011C277.67,613.455,277.958,613.28,278.535,612.935z"/>
		<radialGradient id="SVGID_5_" cx="418.2793" cy="618.4521" r="94.6068" gradientUnits="userSpaceOnUse">
			<stop  offset="0" style="stop-color:#F15A24"/>
			<stop  offset="1" style="stop-color:#F8AF3D"/>
		</radialGradient>
		<path fill="url(#SVGID_5_)" stroke="#000000" stroke-width="3" stroke-miterlimit="10" d="M343.717,542.953
			c28.482,28.948,56.97,57.891,85.453,86.838c0.007-1.567,0.368-3.109,1.086-4.617c1.294-1.626,1.94-2.437,3.229-4.068
			c2.18-1.378,3.271-2.068,5.457-3.441c1.673-1.095,2.511-1.643,4.187-2.734c4.203,0.328,7.414-0.378,9.588-2.167
			c1.45-1.192,3.253-5.514,5.25-13.128c1.996-7.609,4.099-12.519,6.469-14.56c1.537-1.323,3.899-3.025,5.236-2.993
			c3.678,0.09,10.11,4.916,14.595,8.471c4.487,3.556,8.14,6.58,10.933,9.044c2.796,2.467,5.739,5.317,8.826,8.54
			c4.596,4.934,6.895,7.398,11.487,12.328c1.691,1.766,2.536,2.649,4.228,4.415c2.662,3.05,3.99,4.573,6.648,7.619
			c-1.571,1.743-2.359,2.611-3.938,4.347c-2.372,1.583-3.557,2.374-5.929,3.957c-3.242,2.164-4.866,3.247-8.108,5.411
			c-1.187,0.792-1.778,1.186-2.965,1.978c-0.791,0.527-1.58,1.056-2.371,1.583c-1.187,0.792-2.044,1.364-2.569,1.715
			c-1.503,1.003-2.252,1.504-3.755,2.507c-1.897,1.267-2.851,1.899-4.748,3.166c0.933,3.23,0.061,5.702-2.593,7.441
			c-1.156,0.417-1.733,0.626-2.887,1.045c-2.401-0.342-3.598-0.507-5.985-0.833c-16.659,10.793-33.298,21.616-49.923,32.461
			c-35.791-37.359-71.577-74.722-107.365-112.083c-4.717-5.466-7.08-8.203-11.815-13.688c-1.121-6.355-1.517-11.278-1.113-14.691
			c0.403-3.411,1.287-6.102,2.677-8.034c1.376-1.404,2.064-2.106,3.445-3.507c3.762-0.403,5.658-0.588,9.476-0.934
			c0.95-0.135,1.992-0.97,3.125-2.493c0.566-0.762,1.059-1.648,1.416-1.904c0.978-0.702,3.99-0.176,7.045,1.098
			C340.562,542.313,342.639,542.959,343.717,542.953z M312.165,555.688c-0.522,2.658-0.544,5.637-0.073,8.925
			s2.104,6.565,4.334,7.705c2.771,1.415,7.435,2.683,11.393,4.785c4.098,2.248,6.158,3.385,10.299,5.678
			c0.932-0.354,1.366-1.115,1.297-2.298c-0.023-1.485-0.037-2.229-0.066-3.722c0.707-1.92,1.059-2.88,1.758-4.809
			c0.885-1.069,2.098-1.24,3.643-0.516c2.278,2.378,3.417,3.567,5.695,5.945c2.761,2.883,5.43,4.988,8.016,6.335
			c2.588,1.349,5.521,1.706,8.824,1.094c-8.446-13.281-16.933-26.537-25.456-39.77c-2.144-1.107-4.211-1.403-6.191-0.882
			c-1.984,0.522-3.806,2.405-5.545,4.194c-1.279,1.316-4.297,1.942-7.952,1.947c-3.653,0.005-6.294,0.9-7.962,2.627
			C313.373,554.033,312.97,554.582,312.165,555.688z M319.519,551.525c-0.713,1.827-1.07,2.737-1.789,4.559
			c-1.175,2.156-1.739,5.793-1.842,5.859c-0.231,0.149-1.946-2.146-1.553-4.669c0.505-1.367,0.757-2.053,1.258-3.424
			C316.999,551.935,318.305,551.162,319.519,551.525z M470.691,586.867c-1.074,0.909-1.612,1.362-2.686,2.271
			c-2.269,1.92-4.158,6.716-5.826,14.22c-1.67,7.507-3.558,11.963-5.506,13.534c-2.317,1.868-9.447,0.607-10.48,1.237
			c-0.241,0.146-0.715,1.623-1.441,2.219c-1.674,0.959-2.508,1.438-4.179,2.4c-2.426,0.628-4.055,1.299-4.896,1.995
			c-1.446,1.196-1.793,3.283-1.636,5.737c0.107,1.672,0.879,3.849,2.667,6.165c1.364,1.424,2.045,2.138,3.409,3.562
			c1.66,1.191,2.491,1.788,4.155,2.984c0.788,0.958,1.182,1.435,1.97,2.393c6.147-0.57,12.991,1.042,20.549,4.873
			c8.325,4.36,12.524,6.582,21.003,11.103c-0.119-1.884-0.182-2.828-0.313-4.725c-2.888-3.015-4.222-6.664-4.063-11.012
			c0.112-5.566,0.139-8.376,0.146-14.053c0.727-1.948,1.588-3.302,2.604-4.049c1.521-1.119,4.958-1.082,10.38,0.181
			c5.423,1.262,11.453,1.137,11.858,0.365c0.599-1.139-2.227-6.772-4.523-9.961c-2.294-3.185-3.922-5.392-4.867-6.603
			c-0.946-1.212-2.691-3.151-5.24-5.813c-2.889-2.881-4.333-4.32-7.219-7.198c-3.025-3.022-4.537-4.533-7.56-7.554
			C475.663,589.419,474.002,588.564,470.691,586.867z M474.74,639.136c-0.029,0.532-4.914,1.586-8.968,0.621
			c-4.057-0.966-6.938-1.436-8.673-1.444c-0.435-0.995-0.653-1.491-1.091-2.489c1.851,0.806,4.981,1.137,9.419,1.035
			C469.867,636.757,474.759,638.796,474.74,639.136z M490.99,610.09c-1.188-1.24-3.763-1.781-7.68-1.591
			c-3.921,0.19-6.525,0.101-7.21-0.422c-0.758-0.578-1.301-4.312-0.202-5.961c0.761-1.142,4.769-0.319,8.812,2.769
			C487.218,606.963,488.474,608.005,490.99,610.09z"/>
		<radialGradient id="SVGID_6_" cx="480.2949" cy="529.4258" r="98.7281" gradientUnits="userSpaceOnUse">
			<stop  offset="0" style="stop-color:#F15A24"/>
			<stop  offset="1" style="stop-color:#F8AF3D"/>
		</radialGradient>
		<path fill="url(#SVGID_6_)" stroke="#000000" stroke-width="3" stroke-miterlimit="10" d="M409.55,431.02
			c13.213,13.003,26.427,26.007,39.638,39.013c42.6,44.473,85.201,88.943,127.799,133.417c-0.152,1.601-0.229,2.397-0.39,3.989
			c-11.544,7.57-23.088,15.142-34.634,22.709c-2.124-1.27-3.186-1.902-5.302-3.164c-47.274-49.812-94.56-99.614-141.836-149.423
			c-4.71-6.72-7.965-12.037-9.744-15.923s-1.954-8.014-0.523-12.388c1.28-0.152,1.92-0.228,3.206-0.375
			c0.893-1.233,1.339-1.849,2.232-3.082c1.33-2.536,1.995-3.804,3.319-6.346c1.449-2.954,2.17-4.434,3.61-7.397
			c1.296-1.803,2.9-2.892,4.821-3.255C403.665,428.431,406.264,429.17,409.55,431.02z M389.722,450.243
			c2.156,0.897,3.238,1.35,5.406,2.26c-0.713,2.369-1.072,3.55-1.794,5.908c-0.589,0.547-1.43,0.346-2.52-0.602
			c-1-1.044-1.502-1.567-2.502-2.611c-0.156,3.221,0.423,6.249,1.736,9.084c1.315,2.841,3.201,5.542,5.678,8.129
			c2.615,2.73,6.253,5.739,10.945,9.057c3.372,2.437,5.062,3.661,8.45,6.115c1.937-0.458,3.808-0.196,5.604,0.775
			c1.829,1.368,2.745,2.054,4.579,3.427c2.222,3.132,3.329,4.694,5.54,7.814c2.023,2.789,3.034,4.179,5.049,6.959
			c1.528,1.596,2.987,2.74,4.388,3.44c1.401,0.702,6.24,1.113,6.366,0.924c0.158-0.238-1.621-3.43-3.175-5.924
			c-1.07-1.523-1.606-2.286-2.68-3.813c-1.957-1.637-2.934-2.455-4.887-4.088c-1.961-2.047-3.501-3.655-4.625-4.828
			c-1.497-1.968-2.247-2.952-3.747-4.924c-1.084-1.83-2.25-4.917-1.748-6.366c0.509-1.468,3.743-2.377,6.536-1.556
			c5.504,2.253,8.274,3.399,13.85,5.727c-2.57-7.63-6.823-15.648-12.733-23.94c-6.511-9.135-13.969-19.033-21.497-25.667
			c-2.218-1.955-4.938-2.786-6.719-2.616c-1.78,0.17-3.439,1.146-4.986,2.915c-1.401,1.92-2.103,2.88-3.504,4.8
			c-1.086,2.52-1.631,3.778-2.726,6.29C392.691,448.723,391.265,449.824,389.722,450.243z M415.173,452.792
			c0.431,0.449,0.646,0.675,1.076,1.125c-1.979,1.724-2.967,2.585-4.939,4.315c-1.933,0.689-2.897,1.037-4.818,1.738
			c-0.498-2.322-0.27-4.114,0.693-5.367C408.818,452.477,411.472,451.862,415.173,452.792z"/>
		<radialGradient id="SVGID_7_" cx="545.2178" cy="470.2192" r="127.1209" gradientUnits="userSpaceOnUse">
			<stop  offset="0" style="stop-color:#F15A24"/>
			<stop  offset="1" style="stop-color:#F8AF3D"/>
		</radialGradient>
		<path fill="url(#SVGID_7_)" stroke="#000000" stroke-width="3" stroke-miterlimit="10" d="M487.716,345.535
			c3.563,0.775,8.818,2.883,15.426,6.619c8.274,4.841,12.44,7.29,20.823,12.243c11.613,11.113,23.234,22.218,34.849,33.33
			c13.252,13.833,26.503,27.668,39.755,41.501c10.956,11.433,21.908,22.869,32.861,34.305
			c10.779,11.252,21.559,22.505,32.336,33.759c4.02,6.004,6.981,11.574,8.869,16.701c1.89,5.133,2.338,9.77,1.353,13.927
			c-4.688,5.391-7.048,8.071-11.796,13.399c-23.08,14.574-46.141,29.181-69.175,43.827
			c-44.986-45.952-89.972-91.905-134.965-137.851c-1.315,0.208-2.77-0.408-4.361-1.848c-1.723-2.34-2.585-3.512-4.313-5.857
			c-0.988-0.625-1.482-0.937-2.468-1.561c-2.534-2.646-5.884-5.24-10.018-7.75c-4.133-2.511-7.126-4.449-8.999-5.84
			c-1.869-1.389-3.775-2.867-5.393-4.447c-2.22-2.17-3.912-4.559-4.617-6.518c-1.095-3.041-1.604-6.81-1.875-10.598
			c-0.27-3.781,0.279-6.657,1.674-8.595c1.486-2.063,4.897-1.647,6.961-1.882c0.934-0.106,4.128-0.782,7.944-0.857
			c3.292-0.065,6.078-0.732,6.944-1.57c0.959-0.929,0.527-4.189-1.311-8.819c0.679-0.919,1.019-1.378,1.698-2.297
			c2.544-2.089,3.818-3.131,6.375-5.208c3.22-2.062,5.41-3.84,6.551-5.367c1.327-1.775,2.03-3.865,2.1-6.274
			c0.07-2.411-2.322-6.611-3.366-10.632c-0.666-2.565,0.358-5.845,1.566-7.524c1.576-2.192,4.356-3.306,8.371-3.294
			c4.011,0.012,9.032,0.856,12.916,3.147c2.169,1.279,4.102,1.795,5.514,0.33c0.561-1.449,0.839-2.176,1.396-3.627
			c0.672-1.603,1.008-2.404,1.677-4.01C483.877,345.263,485.496,345.052,487.716,345.535z M466.835,356.006
			c-2.803,0.442-4.199,0.669-6.98,1.133c-1.827,0.113-3.246,0.877-4.268,2.279c-1.208,1.657-1.417,4.979,0.063,8.148
			c1.673,3.585,3.611,6.861,3.76,9.148c0.149,2.291-0.38,4.601-1.584,6.932c-2.597,2.046-3.891,3.074-6.475,5.134
			c-2.564,1.81-3.844,2.717-6.394,4.542c-0.516,0.686-0.774,1.029-1.29,1.714c-0.287,0.381-0.429,0.572-0.716,0.953
			c2.854,5.476,3.532,9.128,2.083,11.009c-0.678,0.879-4.359,1.344-10.93,1.509c-6.57,0.165-11.981,1.617-12.625,3.135
			c-0.544,1.283,0.481,4.58,1.557,7.062c2.108,2.744,3.161,4.115,5.263,6.853c1.795,1.874,2.692,2.812,4.487,4.686
			s2.692,2.809,4.487,4.683c1.077,1.124,1.615,1.688,2.692,2.812c1.943-0.361,3.975,0.037,6.097,1.189
			c2.536,2.011,3.806,3.017,6.349,5.035c2.168,2.264,3.251,3.396,5.42,5.659c2.259,2.358,3.765,3.931,4.517,4.716
			c-0.727-0.353-1.088-0.529-1.814-0.881c-1.954-2.04-2.94-3.966-2.955-5.79c-0.015-1.817,0.481-3.332,1.496-4.529
			c2.19-1.774,3.287-2.659,5.483-4.425c-2.449-2.557-3.85-6.1-4.231-10.674c-0.382-4.569-0.914-7.892-1.565-9.925
			c0.459-1.416,0.688-2.124,1.144-3.542c0.889-1.102,2.481-1.471,4.787-1.093c2.767,0.453,4.156,0.686,6.942,1.159
			c-0.563-3.159-0.851-4.746-1.435-7.927c-0.376-2.422,0.493-5.808,1.503-6.21c3.434-1.368,14.382,1.009,18.431-1.058
			c2.146-1.095,1.882-4.803-1.297-9.475c-3.177-4.67-4.975-7.899-5.374-9.669c2.072,0.133,3.11,0.202,5.192,0.346
			c2.875-0.155,5.267,0.313,7.166,1.391c0.459-4.393,0.677-6.599,1.099-11.03c2.989-1.389,6.728-0.981,11.228,1.231
			c7.798,4.351,11.723,6.553,19.621,11.01c-3.225-3.502-4.837-5.254-8.063-8.758c-3.424-3.575-6.048-6.771-7.922-8.944
			c-4.447-5.154-9.487-8.769-12.994-10.869c-3.88-2.324-11.703-3.474-12.402-2.508c-0.584,0.807-0.023,5.362-1.179,6.852
			c-1.636,2.109-4.19,2.756-7.636,1.966C474.124,360.194,470.549,358.541,466.835,356.006z M490.102,425.121
			c31.783,32.841,63.572,65.676,95.347,98.524c0.572-1.908,1.844-3.653,3.83-5.227c1.639-1.298,2.457-1.949,4.096-3.247
			c1.713-1.356,2.568-2.033,4.281-3.39c1.859-1.474,3.046-3.312,3.547-5.526c-29.951-30.471-59.895-60.95-89.845-91.423
			c-3.26-2.737-6.196-3.962-8.794-3.672c-2.6,0.29-4.854,1.551-6.783,3.767c-1.23,2.052-1.846,3.078-3.08,5.125
			C491.665,422.083,491.145,423.097,490.102,425.121z M608.361,520.839c-3.586-0.595-8.533,1.693-10.892,3.513
			c-0.828,1.166-1.243,1.746-2.073,2.909c0.866,0.903,1.3,1.358,2.166,2.262c1.123,1.173,2.043,3.151,2.748,5.915
			c0.707,2.769,2.057,4.966,4.063,6.609c2.01,1.646,4.493,3.165,7.45,4.563c2.962,1.399,6.623,3.006,7.874,2.639
			c1.116-0.328,1.436-3.687-0.257-7.033c-2.354-3.27-3.532-4.908-5.897-8.189c1.848-0.778,5.343-0.175,10.528,1.857
			c5.189,2.034,11.499,2.193,11.499,2.193c0.089-0.302-2.884-3.009-3.711-3.872c-1.646-1.719-2.823-3.062-3.522-4.019
			c-2.047-2.543-3.072-3.811-5.123-6.358c-1.699-1.097-4.127-1.654-7.26-1.658C612.821,522.165,609.9,521.094,608.361,520.839z"/>
	</g>
</g>
<g id="Capa_8">
	<g>
		<g>
			<linearGradient id="SVGID_8_" gradientUnits="userSpaceOnUse" x1="39.728" y1="299.9951" x2="917.1843" y2="319.4941">
				<stop  offset="0" style="stop-color:#F8AF3D"/>
				<stop  offset="1" style="stop-color:#00FFFF"/>
			</linearGradient>
			<path fill="url(#SVGID_8_)" stroke="#000000" stroke-width="3" stroke-miterlimit="10" d="M45.035,299.313
				c0.9-2.223,3.653-4.564,5.771-6.136c2.568-1.669,3.854-2.49,6.428-4.104c3.196,1.178,4.789,1.774,7.973,2.976
				c3.418,2.335,5.127,3.501,8.545,5.836c3.76,2.568,5.64,3.854,9.399,6.422c2.903-4.798,4.382-7.17,7.394-11.857
				c2.31-3.231,4.716-5.726,7.177-7.487c2.735-0.897,4.101-1.332,6.831-2.176c-4.845-4.345-7.262-6.523-12.087-10.891
				c-4.717-3.673-7.078-5.51-11.795-9.183c-0.645-3.533-0.281-6.831,1.079-9.852c4.035-7.66,6.126-11.445,10.449-18.923
				c1.252-1.455,1.879-2.179,3.142-3.62c1.578-1.801,2.371-2.695,3.965-4.474c2.806-2.614,4.216-3.905,7.054-6.452
				c1.701-1.66,3.694-2.853,5.97-3.579c1.978-0.279,2.967-0.413,4.938-0.669c24.131,23.075,48.225,46.189,72.271,69.353
				c-0.412,1.018-0.616,1.527-1.021,2.545c-10.245,10.975-19.942,22.207-29.314,33.936c-1.649-0.803-2.474-1.201-4.127-1.996
				c-2.279-1.452-3.421-2.178-5.705-3.623c-2.257-1.933-3.385-2.899-5.64-4.836c-2.363-2.021-3.546-3.031-5.906-5.057
				c-0.978-0.766-1.468-1.148-2.446-1.915c-0.828-0.509-1.242-0.763-2.071-1.27c-0.774-0.465-1.162-0.696-1.937-1.161
				c-0.888,0.022-1.693-0.248-2.421-0.814c-1.571-1.581-2.354-2.375-3.921-3.96c-1.632-1.274-5.617,0.137-7.129,3.113
				c-0.796,1.567,0.336,5.257,2.402,7.191c0.746,0.698,1.684,1.55,2.28,2.58c0.599,1.034,1.037,1.944,1.317,2.732
				c-0.415,0.571-0.622,0.857-1.035,1.431c-2.285,0.254-3.431,0.389-5.724,0.678c-1.747-0.728-2.621-1.089-4.372-1.809
				c-0.436-0.489-0.653-0.734-1.089-1.225c-0.731,0.051-1.098,0.076-1.83,0.13c-0.494,0.29-1.171,1.231-2.08,2.357
				c-1.383,1.714-2.221,3.236-1.802,4.472c0.507,1.109,0.762,1.664,1.274,2.77c1.818,1.242,5.118,3.495,9.902,6.764
				s8.658,5.913,11.622,7.938c5.166,3.529,7.749,5.297,12.915,8.826c-9.357,14.194-17.66,28.923-25.552,43.97
				c-1.66-0.094-2.492-0.137-4.156-0.217c-26.192-13.553-52.383-27.109-78.572-40.668c-2.043,1.453-3.825,1.801-5.361,1.019
				c-1.227-0.625-1.97-1.313-2.221-2.082c-0.777-2.11-1.161-3.171-1.92-5.295c0.237-4.485,0.376-6.729,0.699-11.221
				c0.115-2.854,1.071-5.911,2.886-9.128c1.255-2.227,2.961-4.512,5.125-6.84c1.964-1.593,2.947-2.38,4.918-3.936
				c2.376-1.507,4.28-3.432,5.739-5.795C44.144,302.686,44.503,300.627,45.035,299.313z M33.266,317.152
				c-1.614,2.38-2.415,3.577-4.005,5.99c-2.075,3.698-2.657,7.031-2.54,9.264c0.238,4.533,0.973,8.207,3.515,9.543
				c2.136,1.123,5.074,1.082,8.804-0.047c4.431-1.564,6.643-2.311,11.062-3.739c-0.48-2.121-0.716-3.185-1.177-5.316
				c-0.735-2.908-0.193-7.243,1.978-9.661c2.042-2.273,6.454-3.214,10.124-2.84c3.686,0.572,5.524,0.87,9.191,1.49
				c-1.218-4.998-1.798-7.512-2.904-12.569c-0.588-3.522-1.356-6.579-2.331-9.148c-0.974-2.567-1.971-4.212-3.014-4.911
				c-2.84-1.906-10.249-0.723-13.057,3.143c-1.02,1.404-1.631,4.519-2.647,6.156c-1.166,1.879-3.193,4.19-6.077,6.996
				C37.413,313.727,36.027,314.855,33.266,317.152z M53.182,304.501c0.72-0.884,2.462,1.062,1.97,2.699
				c-1.251,4.165-7.624,7.931-10.452,7.508c2.03-2.056,3.05-3.073,5.095-5.086C50.802,308.641,51.81,306.186,53.182,304.501z
				 M89.55,298.945c-0.912,1.794-1.552,4.009-1.336,5.582c0.14,1.023,1.06,2.121,2.197,2.903c1.08,0.743,1.622,1.114,2.702,1.856
				c1.328,0.913,2.084,2.047,2.288,3.389c4.465-2.795,6.703-4.148,11.184-6.764c2.782-1.533,7.099-0.131,7.099-0.131
				s-1.215-2.341-0.851-4.691c0.334-2.154,0.698-4.328,0.423-6.072c-1.022-1.512-1.531-2.269-2.546-3.787
				c-1.636-0.696-2.456-1.043-4.097-1.732c-1.929-0.535-2.896-0.799-4.831-1.319c-1.101-0.833-2.673-0.366-4.702,1.427
				c-2.029,1.794-3.858,3.839-5.474,6.118C90.723,296.967,90,298.059,89.55,298.945z M87.641,245.798
				c-3.321,6.581-3.851,10.746-1.785,12.397c0.809,0.646,4.683,0.842,10.734,0.11c2.632-0.318,5.126-0.457,7.185-0.066
				c2.059,0.391,3.445,0.891,4.149,1.482c-0.597-2.092-0.891-3.14-1.47-5.242c-0.524-1.451-0.397-3.765,0.74-5.943
				c1.085-2.079,3.117-3.739,5.115-4.698c2.668-1.52,4.004-2.266,6.678-3.73c-0.595-3.636-0.877-5.46-1.414-9.122
				c-0.027-1.777,0.61-4.521,1.972-8.218c-2.138-2.061-3.208-3.091-5.346-5.152c-4.358,1.237-9.359,4.859-14.808,10.986
				c-2.288,2.572-4.383,5.328-6.277,8.248C90.892,240.404,89.798,242.194,87.641,245.798z M104.562,244.712
				c-0.175,0.016-0.439-1.508,0.125-3.277c0.563-1.768,1.578-3.726,3.045-5.848c-0.298,1.567-0.445,2.352-0.73,3.919
				C107.148,240.773,105.168,244.657,104.562,244.712z"/>
			<linearGradient id="SVGID_9_" gradientUnits="userSpaceOnUse" x1="42.2544" y1="186.2993" x2="919.7111" y2="205.7984">
				<stop  offset="0" style="stop-color:#F8AF3D"/>
				<stop  offset="1" style="stop-color:#00FFFF"/>
			</linearGradient>
			<path fill="url(#SVGID_9_)" stroke="#000000" stroke-width="3" stroke-miterlimit="10" d="M197.819,142.644
				c6.765-2.569,15.652-10.369,23.178-15.867c5.297-3.87,9.558-9.203,12.913-12.531c1.693-1.68,4.702-2.773,7.268-3.351
				c3.083-0.682,4.622-1.01,7.701-1.641c0.395,0.757,0.593,1.135,0.988,1.892c0.791,1.515,1.186,2.272,1.977,3.787
				c1.043,2,1.367,3.968,0.995,5.9c0.927,1.444,1.39,2.165,2.314,3.61c0.965,1.522,1.448,2.283,2.411,3.807
				c0.635,1.524,0.952,2.286,1.589,3.809c0.356,0.679,0.04,1.895-0.923,3.641c-14.676,7.93-28.958,16.593-42.766,25.954
				c-1.109,1.73-1.66,2.598-2.748,4.335c-0.74,1.058-2.522,3.188-4.074,3.627c-1.587,0.45-5.746,1.252-9.865,4.236
				c-1.761,1.532-2.638,2.303-4.383,3.856c0.067,2.532,0.908,4.856,2.494,6.977c0.787,1.051,1.179,1.577,1.966,2.628
				c1.501,1.293,2.251,1.942,3.746,3.241c0.637-3.778,3.973-7.913,10.054-12.156c2.659-1.855,5.44-3.583,7.429-3.882
				c1.162-0.174,3.409-0.273,4.624-1.163c0.31-0.227,0.69-0.729,1.108-1.141c0.415-0.408,1.044-1.232,1.89-2.464
				c0.845-1.23,1.988-2.44,3.426-3.625c1.557-0.739,2.337-1.104,3.897-1.827c1.42,0.99,2.128,1.487,3.541,2.484
				c0.581,0.941,0.871,1.41,1.452,2.351c1.416,2.293,2.124,3.44,3.54,5.733c0.775,2.038,1.165,3.055,1.949,5.088
				c0.928,0.726,1.39,1.09,2.315,1.82c-0.64,1.205-2.048,2.48-4.227,3.856c-3.168,2.001-5.025,3.46-5.587,4.308
				c-0.565,0.853-0.547,3.077,0.564,5.314c0.854,1.719,0.429,5.437-1.09,6.126c-0.839,0.381-3.802-0.493-5.918-1.614
				c-2.284-1.209-4.013-2.268-4.962-2.45c-2.145,1.408-3.213,2.12-5.342,3.561c-3.118,2.234-7.12,6.672-6.99,7.051
				c0.089,0.26,2.533,1.701,4.115,3.825c1.376,1.849,2.704,3.083,3.984,3.71c2.922-2.428,4.396-3.625,7.363-5.987
				c2.009-1.681,3.019-2.514,5.051-4.165c2.865-1.973,5.447-3.165,7.229-3.841c1.917-0.728,4.166-1.151,6.485-0.728
				c1.151-1.07,1.728-1.604,2.889-2.664c1.517-1.04,2.276-1.555,3.802-2.579c1.86-1.148,3.799-2.159,5.818-3.03
				c2.019-0.872,4.059-1.703,6.114-2.492c4.87-2.257,7.315-3.346,12.225-5.444c0.682-0.104,2.119,0.267,4.283,1.138
				c2.164,0.871,4.57,0.418,7.266-1.344c1.391,1.307,2.083,1.961,3.463,3.276c0.973,1.908,1.46,2.862,2.434,4.77
				c0.942,1.846,1.412,2.769,2.354,4.615c0.91,1.785,1.366,2.677,2.276,4.461c-0.769,1.163-1.15,1.746-1.907,2.912
				c-34.606,18.483-65.774,40.427-94.857,66.761c-1.063,0.143-1.596,0.216-2.662,0.367c-12.398-13.233-24.796-26.466-37.194-39.699
				c-1.275-1.361-1.913-2.042-3.188-3.403c-6.612-7.058-12.368-12.319-17.301-15.726c-4.934-3.407-10.951-6.265-18.115-8.434
				c2.912-5.946,4.417-8.903,7.524-14.778c0.917-1.316,2.55-3.365,4.917-5.639c2.539-2.439,6.794-5.003,12.228-7.576
				c5.432-2.573,9.625-5.215,12.611-8.05c2.541-3.718,3.832-5.567,6.458-9.239c1.209-1.8,3.188-5.181,5.526-6.771
				c1.022-0.695,4.81-2.267,9.967-4.943C190.588,144.553,195.572,143.497,197.819,142.644z M229.318,123.24
				c-8.946,6.29-17.708,12.719-26.393,19.365c-3.154,1.841-4.726,2.778-7.857,4.681c-2.708,1.444-5.802,2.346-9.303,2.724
				c-1.996,1.171-2.99,1.764-4.977,2.96c-2.489,1.82-4.761,3.941-6.8,6.356c-2.279,3.117-3.403,4.686-5.62,7.837
				c-1.044,1.997-2.557,3.787-4.543,5.394c-1.392,1.126-3.696,2.557-6.898,4.331c-3.742,1.775-5.61,2.686-9.341,4.553
				c-2.249,1.679-3.371,2.527-5.604,4.242c-4.854,4.332-8.055,8.583-9.625,12.606c1.135,1.208,1.702,1.813,2.837,3.021
				c2.051,2.183,6.982,4.395,14.655,6.861c5.368,2.092,8.032,3.167,13.323,5.373c-1.568-1.098-2.354-1.645-3.927-2.736
				c-1.62-1.143-2.431-1.712-4.056-2.848c-1.053-1.166-1.628-2.165-1.709-3.002c0.362-1.603,0.547-2.405,0.923-4.008
				c0.667-1.502,1.62-2.872,2.859-4.111c1.48-1.036,2.223-1.55,3.708-2.569c1.259-0.825,1.89-1.235,3.152-2.049
				c0.709-2.392,1.072-3.587,1.814-5.979c0.845-2.501,0.846-4.286-0.028-5.355c-0.438-0.535,0.146-1.612,1.76-3.218
				c1.995-1.615,2.998-2.416,5.009-4.003c3.757-0.908,6.666-0.601,8.728,0.865c1.859,1.447,2.787,2.172,4.636,3.628
				c-0.502-3.53-0.406-10.147,1.723-12.737c1.253-1.524,5.81-2.102,9.449-1.72c4.248,0.542,6.361,0.838,10.56,1.474
				c0.371-3.105,0.568-4.659,0.987-7.771c0.427-2.921,1.992-6.447,4.603-8.625c1.015-0.847,2.86-1.567,4.791-2.247
				c2.722-0.742,4.082-1.102,6.801-1.8c0.013-2.441,0.025-3.664,0.063-6.111c0.14-1.162,0.845-3.381,2.223-4.759
				c3.606-3.606,9.806-5.1,13.556-4.819c2.208-3.447,3.333-5.165,5.625-8.585c1.433-2.462,1.761-4.453,0.952-5.979
				c-0.324-0.61-1.104-1.144-2.346-1.593c-1.24-0.449-3.436,0.156-6.551,1.855C235.136,116.563,232.061,119.402,229.318,123.24z
				 M241.121,205.595c-1.076,0.15-2.776,1.633-3.792,2.261c-1.021,0.63-2.847,1.423-4.777,2.585
				c-1.563,0.942-2.819,2.356-3.633,3.652c-0.816,1.301-0.974,2.84-0.479,4.619c0.192,1.144,0.29,1.716,0.487,2.858
				c1.093,1.485,2.29,2.389,3.593,2.719c1.825,0.976,2.735,1.467,4.548,2.458c1.347-0.72,2.022-1.077,3.373-1.783
				c1.047-0.915,1.573-1.37,2.627-2.276c1.166-1.405,1.752-2.104,2.934-3.498c0.472-3.391,1.615-5.688,3.38-6.857
				c1.229-0.813,4.372-1.032,8.882-0.209c3.92,0.715,7.341,0.548,10.04-0.961c1.014-1.426,1.526-2.138,2.558-3.557
				c0.924-3.043,1.401-4.564,2.388-7.607c2.895-1.672,5.482-2.192,7.721-1.592c3.064,1.145,4.587,1.729,7.609,2.926
				c-0.721-0.553-1.083-0.829-1.808-1.38c-0.385-0.706-0.203-2.513,0.604-5.422c0.353-1.988,0.535-2.981,0.91-4.972
				c-0.591-1.119-4.713,0.223-6.835-0.277c-0.921-0.217-3.621-1.191-6.884-0.162c-6.048,2.583-9.059,3.935-15.048,6.763
				c-0.651,0.88-0.975,1.32-1.62,2.204c-1.467,1.064-2.198,1.601-3.655,2.68c-1.166,0.814-1.748,1.224-2.908,2.048
				C247.344,205.371,242.908,205.345,241.121,205.595z M210.106,184.639c-0.966,0.691-1.593,2.197-1.2,3.205
				c0.282,0.723,0.768,1.865,0.491,3.062c0.15,0.917,0.225,1.376,0.378,2.292c1.361,1.86,5.93-0.93,10.402-1.93
				c1.427-0.319,4.291,1.011,6.781,2.65c2.489,1.638,6.879,2.919,7.084,2.697c0.076-0.082,0.018-2.132,0.316-4.891
				c0.298-2.757,0.787-5.109,1.111-6.832c1.141-6.078,0.689-10.839-0.729-13.078c-0.666-1.05-1-1.576-1.666-2.626
				c-0.593,2.146-2.469,4.223-5.614,6.285c-1.649,0.833-2.473,1.254-4.117,2.105c-2.011-0.038-5.289,1.461-9.751,4.594
				C212.194,183.152,211.497,183.644,210.106,184.639z"/>
			<linearGradient id="SVGID_10_" gradientUnits="userSpaceOnUse" x1="43.395" y1="134.9746" x2="920.8517" y2="154.4736">
				<stop  offset="0" style="stop-color:#F8AF3D"/>
				<stop  offset="1" style="stop-color:#00FFFF"/>
			</linearGradient>
			<path fill="url(#SVGID_10_)" stroke="#000000" stroke-width="3" stroke-miterlimit="10" d="M318.408,88.805
				c8.068,20.222,16.063,40.472,23.997,60.747c2.117-2.326,4.916-4.077,8.38-5.211c3.001-0.752,4.503-1.115,7.511-1.816
				c2.004-0.467,3.007-0.694,5.014-1.138c2.882,0.667,5.938,0.542,9.214-0.365c2.662-0.737,7.138-3.192,13.632-7.193
				c6.494-4.001,11.427-6.253,14.589-6.91c2.102-0.437,4.755-0.974,6.143-0.531c2.315,0.739,5.128,4.497,7.079,8.055
				c1.951,3.56,3.234,7.158,3.895,10.776c0.558,3.054,0.835,4.58,1.393,7.634c0.545,2.986,0.819,4.479,1.364,7.466
				c-2.314,0.693-3.468,1.045-5.77,1.77c-2.943,0.567-4.413,0.864-7.347,1.48c-3.991,0.839-5.983,1.282-9.956,2.213
				c-1.402,0.329-2.103,0.497-3.502,0.837c-1.362,0.332-3.457,0.611-6.291,0.868c-3.657,1.23-5.477,1.865-9.103,3.174
				c-0.905,1.931-2.977,3.354-6.221,4.327c-1.031,0.309-1.546,0.465-2.575,0.781c-1.857-0.729-2.792-1.09-4.667-1.799
				c-19.282,6.103-37.869,13.73-56.209,22.219c-13.021-26.899-26.042-53.797-39.063-80.697c-1.406-3.915-2.104-5.872-3.495-9.792
				c2.595-3.783,5.146-6.921,7.598-9.416c2.447-2.49,5.537-4.549,9.242-6.131c2.443-0.818,3.665-1.218,6.113-2.005
				c3.763,0.011,5.641,0.034,9.379,0.116c2.11-0.09,5.431-1.802,8.615-2.576c1.875-0.456,4.649,0.359,6.911,1.492
				C315.937,87.822,316.762,88.147,318.408,88.805z M277.527,94.905c-1.903,1.477-4.24,3.579-6.045,6.161
				c-1.213,1.735-1.189,4.489-0.293,5.109c1.462,1.012,5.319,1.749,7.669,3.348c2.896,1.734,4.335,2.612,7.192,4.383
				c1.465-0.268,2.543-0.8,3.244-1.61c0.838-0.97,1.26-1.456,2.105-2.422c1.968-1.295,2.956-1.936,4.941-3.21
				c1.342-0.557,2.64-0.586,3.888-0.095c1.672,2.917,2.504,4.376,4.164,7.3c0.877,2.142,3.948,3.066,9.174,2.903
				c0.457-10.765,0.798-16.164,1.674-26.986c-1.09-0.826-2.929-1.173-5.503-1.011c-2.579,0.162-5.542,0.966-8.724,2.132
				c-2.279,0.835-5.283,0.979-8.826,0.566c-3.546-0.413-6.956,0.08-10.177,1.471C280.213,93.72,279.316,94.113,277.527,94.905z
				 M287.942,92.483c0.022,0.076-1.955,1.314-4.723,2.76c-2.774,1.449-5.141,3.722-5.844,3.888c-0.469,0.111-0.982-0.949-0.027-1.88
				c2.022-1.354,3.037-2.026,5.077-3.358C285.182,92.701,287.938,92.468,287.942,92.483z M405.012,128.866
				c-1.523,0.304-2.285,0.46-3.806,0.776c-3.595,0.748-8.326,2.915-14.041,6.604s-10.285,6.319-13.636,7.36
				c-2.76,0.857-7.201-0.215-9.3,0.153c-0.826,0.145-3.539,1.491-6.814,1.9c-2.923,0.365-5.229,0.583-6.455,0.986
				c-1.839,0.604-3.74,1.734-4.996,3.315c-0.771,0.971-1.055,2.494-0.918,4.151c1.076,1.892,1.612,2.839,2.68,4.734
				c0.206,0.586,0.309,0.879,0.515,1.465c5.651-0.128,10.376,1.377,14.125,4.414c4.368,3.252,6.518,4.902,10.75,8.254
				c0.88-1.178,1.324-1.765,2.218-2.939c-0.318-1.078-0.268-2.15,0.162-3.209c0.428-1.057,1.379-2.331,2.87-3.796
				c3.387-3.294,5.112-4.924,8.624-8.15c0.909-0.597,2.513-1.43,4.591-2.046c2.252-0.668,5.317-0.225,8.663,1.093
				c3.342,1.317,7.364,2.428,8.688,1.768c1.54-0.768,2.957-4.386,3.339-6.715c-0.082-2.974-0.118-4.46-0.183-7.435
				c-0.213-1.097-0.318-1.645-0.531-2.743c-0.178-0.916-0.608-2.02-1.291-3.311c-0.519-1.324-0.779-1.987-1.301-3.311
				C407.393,130.851,406.603,130.188,405.012,128.866z M375.121,158.388c-0.188,0.405-4.302,0.33-7.587-0.489
				c-2.53-0.612-3.802-0.908-6.356-1.483c0.192-0.639,0.289-0.959,0.483-1.598c0.775,0.364,3.081,0.695,6.891,1.068
				C372.358,156.26,375.217,158.18,375.121,158.388z M406.476,143.878c-0.187-0.9-1.974-1.545-5.379-1.873
				c-3.41-0.329-5.418-0.705-5.588-1.067c-0.231-0.494,1.34-2.375,3.813-3.314c1.856-0.705,4.006,0.445,5.146,2.791
				C405.274,141.798,405.676,142.491,406.476,143.878z"/>
			<linearGradient id="SVGID_11_" gradientUnits="userSpaceOnUse" x1="44.2813" y1="95.1221" x2="921.7373" y2="114.6211">
				<stop  offset="0" style="stop-color:#F8AF3D"/>
				<stop  offset="1" style="stop-color:#00FFFF"/>
			</linearGradient>
			<path fill="url(#SVGID_11_)" stroke="#000000" stroke-width="3" stroke-miterlimit="10" d="M516.877,51.547
				c-0.024,0.729-0.036,1.094-0.061,1.823c-0.046,1.352,1.139,2.909,3.517,4.694c2.374,1.782,3.635,3.145,3.812,4.054
				c-0.154,3.199-0.231,4.798-0.386,7.997c-0.118,2.45-0.178,3.673-0.296,6.123c-0.06,1.24-0.091,1.861-0.15,3.101
				c9.619,22.427,18.065,45.111,25.417,68.381c0.519,2,0.776,3,1.278,5.001c-0.266,2.261-0.4,3.392-0.666,5.652
				c-6.069-0.489-9.107-0.682-15.181-0.961c-5.84-0.261-8.758-0.342-14.595-0.41c-4.035-0.397-6.058-0.573-10.105-0.877
				c-1.518-3.21-2.29-4.812-3.867-8.008c-1.398-3.927-3.274-6.767-5.606-8.497c-11.128-0.03-16.694,0.123-27.806,0.766
				c-3.205,6.541-4.744,9.826-7.691,16.418c-3.773,0.707-5.653,1.081-9.402,1.869c-4.62,0.458-6.929,0.717-11.537,1.296
				c-3.309,0.417-4.961,0.641-8.262,1.12c-3.065,0.445-4.596,0.681-7.654,1.18c-0.378-2.267,0.034-5.833,1.333-10.69
				c0.926-3.565,1.403-5.347,2.387-8.909c6.799-26.284,14.917-51.931,24.422-77.361c-0.068-0.825-0.104-1.236-0.171-2.061
				c-0.553-1.408-0.831-2.111-1.39-3.517c-0.554-1.339-0.831-2.009-1.39-3.348c-0.097-1.12,0.489-2.172,1.77-3.153
				c1.277-0.979,4.144-1.652,8.585-1.939c2.976,0.041,4.463,0.073,7.435,0.154c0.774,0.608,3.716,1.389,4.851,0.743
				c0.6-0.341,3.001-2.03,6.942-2.837c3.936-0.806,6.281-1.76,7.008-2.922c1.455,0.113,2.183,0.172,3.637,0.295
				c1.889-0.02,2.832-0.025,4.722-0.028c2.616-0.004,3.928,0,6.544,0.026c3.87,0.039,6.855,0.555,8.698,1.067
				C514.803,48.284,516.225,49.461,516.877,51.547z M489.443,47.978c-0.717,1.599-1.072,2.4-1.777,4
				c-1.479,0.03-2.217,0.046-3.695,0.086c-1.727,0.046-3.007,0.493-3.838,1.324c-0.836,0.834-2.225,1.344-4.179,1.539
				c-5.627-0.732-8.452-1.062-14.123-1.648c-2.708,0.182-4.459,0.697-5.255,1.504c-0.802,0.813-1.136,1.964-1.015,3.452
				c0.067,0.825,0.1,1.236,0.167,2.061c3.525,1.336,5.772,3.893,6.755,7.628c0.857,4.02,1.279,6.03,2.113,10.053
				c2.28-1.04,3.367-2.717,3.227-5.051c-0.048-0.8-0.072-1.2-0.12-2c-0.08-1.333,0.155-2.409,0.708-3.228
				c0.549-0.814,2.39-2.274,3.663-2.238c1.363,0.039,3.962,2.421,5.968,4.794c1.812,2.403,2.707,3.607,4.479,6.025
				c-0.046-1.446-0.126-2.438-0.079-2.502c0.4-0.553,2.615-1.299,2.774-2.418c-0.604-1.321-0.909-1.98-1.521-3.3
				c-0.02-0.667,0.439-1.237,1.389-1.709c0.863-0.022,1.293-0.03,2.156-0.049c1.941,3.2,2.9,4.804,4.784,8.021
				c0.968,1.943,5.325,5.302,5.325,5.302c0.045-0.038,0.341-2.547,2.463-4.201c2.121-1.653,3.342-3.038,3.207-3.326
				c-0.439-0.937-2.361-2.243-2.834-3.273c0.431-0.616,0.646-0.923,1.079-1.539c1.718,1.243,2.57,1.866,4.268,3.123
				c1.977,1.671,2.955,2.511,4.899,4.2c0.795,2.42,1.187,3.631,1.962,6.054c-0.064,2.413,2.237,6.791,2.237,6.791
				c0.155-0.048,1.121-6.688,3.155-11.086c1.421-3.791,2.142-5.685,3.61-9.466c0.119-2.74-1.366-7.713-3.278-8.705
				c-0.866-0.449-2.525-1.111-2.46-3.168c-1.274-1.548-1.915-2.322-3.209-3.863c-0.958-1.282-4.106-2.925-6.634-2.531
				c-0.597,0.093-1.991,0.608-3.721,0.827c-2.373-0.48-3.563-0.713-5.946-1.167C493.912,47.703,491.67,47.596,489.443,47.978z
				 M492.467,121.729c-2.518,0.378-4.918,0.201-7.236-0.54c-1.57-0.508-2.359-0.758-3.939-1.253
				c-0.947,0.311-1.418,0.466-2.362,0.781c-1.312,2.125-1.912,3.997-1.837,5.603c0.059,1.265,0.657,2.213,1.793,2.855
				c2.089-0.848,3.137-1.267,5.244-2.091c2.232-1.104,4.511-1.946,6.146-1.874c0.551,0.024,1.191,0.181,1.711,0.231
				c0.518,0.05,1.294,0.301,2.331,0.749c0.366-0.624,0.55-0.936,0.919-1.56C494.136,123.468,493.582,122.887,492.467,121.729z
				 M484.852,108.092c-0.762,0.482-1.688,1.662-2.773,3.537c-0.627,1.815-0.938,2.723-1.551,4.54c1.845,0.552,2.766,0.832,4.6,1.401
				c1.97,0.75,3.805,0.999,5.53,0.738c-0.011-0.621-0.019-0.93-0.029-1.551C488.358,113.278,487.203,111.544,484.852,108.092z
				 M500.227,53.075c-3.688-0.01-6.625,1.402-6.625,1.402c-0.085-0.029,1.451-2.516,4.408-2.783c1.627,0.273,2.439,0.415,4.063,0.7
				c0.443,0.002,0.664,0.004,1.107,0.008C501.996,52.668,501.407,52.803,500.227,53.075z"/>
			<linearGradient id="SVGID_12_" gradientUnits="userSpaceOnUse" x1="44.0269" y1="106.5322" x2="921.4824" y2="126.0312">
				<stop  offset="0" style="stop-color:#F8AF3D"/>
				<stop  offset="1" style="stop-color:#00FFFF"/>
			</linearGradient>
			<path fill="url(#SVGID_12_)" stroke="#000000" stroke-width="3" stroke-miterlimit="10" d="M697.016,92.412
				c2.631,2.766,4.53,5.965,5.682,9.554c1.152,3.59,1.971,6.158,2.495,7.694c0.523,1.532,0.954,2.507,1.309,2.909
				c-1.997,7.111-3.013,10.662-5.078,17.749c-3.382,7.642-5.073,11.461-8.456,19.104c-0.671,1.516-1.007,2.274-1.678,3.79
				c-0.587,1.326-0.881,1.989-1.468,3.315c-0.531,1.2-0.797,1.8-1.328,3c-0.503,1.137-0.756,1.707-1.259,2.843
				c-0.419,0.947-0.627,1.421-1.046,2.369c-0.335,0.758-0.505,1.136-0.84,1.894s-0.503,1.138-0.839,1.896
				c-0.95,2.147-1.427,3.221-2.377,5.368c-0.923,2.084-1.383,3.125-2.306,5.209c-0.252,0.568-0.375,0.854-0.627,1.422
				c-2.116,1.713-4.705,3.132-7.739,4.284c-3.038,1.153-6.396,1.473-10.101,0.987c-7.093-2.082-10.653-3.041-17.785-4.804
				c-26.086-8.915-52.337-15.56-79.518-20.159c3.428-27.183,6.748-54.377,9.952-81.587c-1.319-0.773-1.928-1.554-1.813-2.354
				c0.381-0.646,0.572-0.967,0.955-1.611c0.618-0.96,0.144-1.961-0.01-2.448c-0.196-0.624-0.581-3.462-2.303-6.951
				s-2.52-5.916-2.339-7.288c0.15-1.144,0.772-2.11,1.876-2.895c3.27-0.966,4.912-1.437,8.217-2.354
				c3.106-0.596,6.021-0.673,8.734-0.234c2.706,0.438,5.503,2.298,7.746,3.411c1.649,0.819,4.631,2.1,7.238,3.79
				c2.505,1.624,5.082,2.823,6.894,3.306c1.795,0.479,5.054-0.858,7.442-1.063c2.024-0.174,6.918,1.592,12.608,3.457
				c4.268,1.4,6.391,2.122,10.624,3.608c3.119,0.832,5.784,1.244,7.997,1.213c2.211-0.031,4.974-1.035,7.255-1.405
				c1.713-0.278,4.699,0.499,7.821,1.472c3.84,1.197,7.297,2.984,10.335,5.336s4.997,4.503,5.901,6.404
				c0.903,1.899,2.358,3.335,4.38,4.313c2.007,0.581,3.011,0.878,5.014,1.479c1.745,0.432,2.616,0.651,4.36,1.098
				C694.338,90.067,695.699,91.028,697.016,92.412z M671.563,78.938c-2.726-1.709-4.095-2.556-6.854-4.228
				c-1.084-0.706-2.847-1.689-5.091-2.492c-2.468-0.882-5.646-1.083-7.352-0.215c-1.235,0.628-3.264,1.63-5.74,1.767
				c-2.483,0.138-4.903-0.11-7.277-0.745c-2.38-0.636-5.399-1.726-9.08-3.233c-3.932-1.332-5.906-1.979-9.867-3.237
				c-1.763-0.261-2.644-0.387-4.407-0.633c-2.407,1.71-5.025,2.264-7.903,1.673c-1.681-0.345-5.221-2.195-10.75-5.426
				c-5.532-3.232-10.302-5.645-13.071-5.894c-1.957-0.176-3.92,0.594-4.918,1.431c-1.003,0.84-1.602,1.943-1.805,3.308
				c-0.438,2.934-0.654,4.401-1.092,7.335c1.989,0.755,3.346,1.691,4.073,2.791c0.729,1.101,0.968,2.392,0.731,3.865
				c-0.229,1.43-0.345,2.146-0.574,3.577c-0.164,1.021-0.292,1.816-0.383,2.383c-0.365-0.407-0.548-0.609-0.915-1.015
				c1.043-2.047,3.69-2.752,7.919-2.036c1.679,0.354,2.52,0.534,4.195,0.902c1.873,0.333,4.039,1.165,4.151,1.106
				c0.264-0.138,2.427-2.364,6.552-2.955c2.816-0.568,4.233-0.845,7.071-1.375c0.942-0.154,1.414-0.229,2.359-0.379
				c0.883,0.12,1.323,0.18,2.206,0.303c1.368,0.3,3.17,1.35,5.373,3.157c1.459,1.116,2.186,1.677,3.631,2.804
				c2.353-0.43,3.532-0.639,5.899-1.042c1.794-0.142,4.85-0.362,6.683,0.472c4.186,1.905,9.973,7.406,15.379,9.889
				c2.79,1.282,5.249,1.06,7.041-0.548c1.79-1.606,3.502-2.514,5.117-2.719c2.013,1.518,3.012,2.282,4.999,3.82
				c1.215,0.77,1.979,1.759,2.304,2.964c4.271,0.509,6.41,0.79,10.691,1.39c4.093,2.224,6.805,4.986,8.128,8.211
				c1.416,3.509,2.104,5.266,3.446,8.781c0.784-1.545,1.177-2.317,1.963-3.862c0.783-1.918,1.943-3.371,2.501-4.205
				c1.126-1.686,1.059-4.506,0.277-6.491s-3.835-6.05-7.096-7.114c-1.427-0.465-4.609-0.503-7.349-1.438
				c-2.967-1.014-5.232-2.329-6.689-3.749c-1.458-1.419-2.511-2.72-3.146-3.904C672.258,80.748,671.81,79.749,671.563,78.938z
				 M627.58,91.553c-4.213,17.621-8.454,35.234-12.724,52.841c2.647,0.536,3.97,0.813,6.612,1.389
				c2.444,0.808,3.665,1.221,6.098,2.062c1.731,0.497,2.594,0.749,4.32,1.263c2.464,0.733,5.025,1.158,7.698,1.278
				c4.46-15.965,8.866-31.946,13.197-47.947c-0.232-1.637-1.497-3.21-3.801-4.683c-2.307-1.475-5.201-2.713-8.667-3.687
				c-3.465-0.973-6.049-1.543-7.729-1.75C630.584,92.002,629.582,91.849,627.58,91.553z M632.633,154.557
				c-1.864-2.106-6.696-3.604-10.134-4.556c-1.494-0.271-2.239-0.401-3.734-0.659c0.335,1.162-0.695,2.401-2.811,3.181
				c-1.94,0.715-2.994,1.52-2.902,2.452c0.131,1.33,0.521,2.807,1.424,4.117c1.274,1.336,1.907,2.007,3.162,3.352
				c1.813,0.259,3.485-0.109,5.039-1.102c1.145-1.325,1.719-1.982,2.875-3.301c1.375,0.397,3.123,1.894,5.185,4.506
				c2.062,2.611,5.476,5.603,5.737,5.504c0.189-0.071,0.502-1.531,0.646-1.969c0.286-0.874,0.618-1.491,1.011-1.849
				c0.851-1.104,1.281-1.655,2.138-2.756c-0.339-0.956-1.588-2.151-3.764-3.559C634.327,156.51,633.075,155.057,632.633,154.557z"/>
			<linearGradient id="SVGID_13_" gradientUnits="userSpaceOnUse" x1="42.7935" y1="162.0586" x2="920.2499" y2="181.5576">
				<stop  offset="0" style="stop-color:#F8AF3D"/>
				<stop  offset="1" style="stop-color:#00FFFF"/>
			</linearGradient>
			<path fill="url(#SVGID_13_)" stroke="#000000" stroke-width="3" stroke-miterlimit="10" d="M833.137,169.905
				c-0.536,7.542-0.864,11.295-1.639,18.756c-0.729,6.313-1.828,12.238-3.818,15.373c-0.425,0.668-1.983,2.79-4.162,6.24
				c-2.178,3.45-4.035,6.048-5.542,7.795c-3.702,5.586-5.562,8.371-9.31,13.923c-5.68,6.528-12.412,10.799-19.637,12.433
				c-9.76,2.208-20.096-0.469-28.313-3.942c-9.222-3.897-19.519-10.741-28.918-16.713c-6.7-4.257-12.089-7.926-16.095-11.155
				c-4.009-3.23-7.334-6.167-9.938-8.861c-2.606-2.697-5.756-6.487-9.569-11.324c-3.813-4.836-4.638-11.112-2.366-18.944
				c2.425-7.557,3.618-11.343,5.961-18.931c1.104-2.381,1.657-3.572,2.761-5.953c1.133-2.444,1.699-3.666,2.832-6.11
				c2.436-4.278,3.656-6.415,6.11-10.684c1.901-2.418,5.234-4.563,10.067-6.344c0.267-4.847,0.378-7.273,0.564-12.138
				c0.93-1.978,2.71-3.023,4.992-2.808c2.941,0.277,6.482,0.735,10.269,0.94c3.78,0.205,6.571,0.789,8.35,1.705
				c1.331,0.686,2.61,1.741,3.831,3.165c2.981,0.444,4.475,0.677,7.464,1.169c1.506,0.383,3.816,1.129,6.402,2.44
				c2.145,1.087,3.685,2.42,4.488,3.546c1.18,1.875,1.759,2.815,2.914,4.697c1.942,1.143,4.979,1.906,9.138,2.357
				c4.156,0.451,7.428,1.454,9.784,2.957c1.155,0.737,1.731,1.108,2.883,1.854c0.763,1.625,2.143,3.479,4.054,4.926
				c1.893,1.433,5.466,2.639,10.097,3.799c4.626,1.159,8,2.537,10.085,4.045c1.04,0.752,2.49,2.5,4.364,4.485
				c3.323,3.521,6.632,6.913,8.649,9.634C831.869,164.909,833.098,167.5,833.137,169.905z M813.343,147.762
				c-7.038-1.376-10.544-1.994-17.528-3.089c-1.188-1.791-1.788-2.684-2.997-4.467c-1.909-2.211-3.519-3.725-4.812-4.549
				c-1.507-0.96-4.54-1.689-9.049-2.093c-4.511-0.404-9.174-1.281-10.328-2.673c-1.515-1.825-3.492-6.031-6.796-7.887
				c-2.425-1.362-5.639-2.612-9.621-3.704c-3.115-1.043-4.675-1.552-7.795-2.542c-1.398-0.956-2.099-1.431-3.505-2.375
				c-1.632-0.624-3.369-1.041-5.195-1.244c-4.003,0.386-5.992,0.6-9.954,1.067c0.085,3.556,0.116,5.332,0.152,8.878
				c0.958,2.423,2.499,4.159,4.646,5.231c1.498,0.748,3.682,1.205,6.572,1.398c2.883,0.192,5.395,0.595,7.065,1.361
				c1.242,0.569,2.783,3.15,4.279,4.274c1.237,0.93,4.257,1.035,6.578,0.888c3.172-0.275,4.762-0.399,7.959-0.62
				c1.922,0.796,2.887,1.198,4.805,2.016c1.689,1.003,3.882,3.455,6.568,6.916c2.634,3.394,5.038,5.775,6.824,7.068
				c1.482,0.68,2.222,1.023,3.701,1.716c1.674-0.938,2.516-1.403,4.199-2.33c1.076-0.28,3.163-0.091,5.17,0.967
				c4.111,2.168,7.174,7.253,8.458,12.862c1.284,5.607,2.597,9.662,4.063,12.184c1.372-0.612,2.06-0.915,3.438-1.519
				c1.628-0.935,4.795-0.59,6.188,1.035c3.024,3.525,2.782,11.911,0.431,18.083c-2.352,6.173-3.628,10.237-3.74,12.235
				c1.362-1.653,2.044-2.48,3.406-4.133c2.218-3.366,3.323-5.053,5.527-8.43c1.449,0.152,2.802-0.146,4.063-0.895
				c0.867-4.044,1.288-6.072,2.094-10.144c-2.436-3.328-2.993-7.108-1.242-9.87c0.718-1.132,1.574-2.396,1.923-3.657
				c0.349-1.264,0.51-2.494,0.476-3.693c-0.034-1.197-1.712-3.629-5.092-7.211C819.97,154.333,817.781,152.121,813.343,147.762z
				 M747.861,127.354c-0.53,0.292-4.418-2.61-6.339-5.287c0.224-0.429,0.334-0.643,0.558-1.072c1.197,0.618,2.521,1.597,3.948,2.938
				C747.452,125.269,748.004,127.275,747.861,127.354z M775.438,151.824c-0.804-0.804-2.611-1.096-4.124-0.952
				c-1.571,0.326-2.356,0.493-3.92,0.831c-9.293,15.105-18.591,30.208-27.885,45.313c1.22,0.073,2.965,0.533,4.767,1.534
				c1.968,1.093,4.057,3.825,6.033,7.674c1.975,3.845,3.263,6.224,3.956,7.113c11.028-16.182,22.06-32.363,33.087-48.545
				c-0.423-1.955-0.644-2.933-1.088-4.889c-1.335-0.104-1.999-0.154-3.331-0.248c-1.453-0.174-2.181-0.259-3.631-0.421
				c-1.62-1.057-3.111-2.715-3.322-4.201C775.813,153.861,775.881,152.267,775.438,151.824z M741.828,201.501
				c-1.914-1.157-4.797-0.463-5.762,1.104c-0.29,1.2-0.436,1.801-0.729,3c-0.606,0.98-0.882,1.823-0.825,2.534
				c-0.508,0.58-0.764,0.869-1.271,1.45c1.39,0.614,2.087,0.924,3.474,1.552c1.596,1.004,2.247,2.518,1.953,4.516
				c-0.386,2.216-0.586,3.322-0.991,5.53c1.46,0.704,2.188,1.06,3.645,1.78c1.38-0.958,2.072-1.434,3.46-2.383
				c1.614-1.287,2.425-1.929,4.05-3.206c0.081-2.861-0.652-5.581-1.503-7.843C746.57,207.52,744.593,203.172,741.828,201.501z
				 M807.53,157.197c2.401,1.041,3.6,1.569,5.997,2.646c-0.614,0.835-1.632,1.159-3.049,0.978c-1.421-0.181-3.077-1.018-4.664-2.517
				c-1.428-1.35-2.293-2.823-2.581-4.153c-0.016-1.024-0.026-1.537-0.047-2.562c1.435,0.579,2.248,1.4,2.432,2.445
				C805.802,155.082,806.44,156.134,807.53,157.197z"/>
			<linearGradient id="SVGID_14_" gradientUnits="userSpaceOnUse" x1="40.3687" y1="271.1343" x2="917.8241" y2="290.6333">
				<stop  offset="0" style="stop-color:#F8AF3D"/>
				<stop  offset="1" style="stop-color:#00FFFF"/>
			</linearGradient>
			<path fill="url(#SVGID_14_)" stroke="#000000" stroke-width="3" stroke-miterlimit="10" d="M918.854,372.919
				c-1.635,1.345-2.456,2.016-4.097,3.353c-4.608,2.349-9.942,2.486-15.967,0.66c-6.028-1.826-12.979-5.561-20.443-10.953
				c-5.588-4.036-11.199-9.467-16.907-15.841c-5.712-6.376-11.29-13.322-16.852-20.853c-2.872-3.889-4.331-5.807-7.288-9.586
				c-2.977-4.262-4.488-6.362-7.571-10.508c-6.109-9.528-12.249-19.039-17.652-28.957c-4.625-8.49-8.638-17.371-12.043-26.448
				c0.509-0.564,0.763-0.847,1.271-1.412c9.772,1.212,19.498,2.797,29.15,4.747c0.959,1.364,1.438,2.048,2.385,3.42
				c2.861,2.949,5.874,4.809,9.101,5.578c2.892,3.929,4.313,5.915,7.11,9.929c4.357,5.473,4.311,11.267,4.508,12.695
				c0.165,1.189,4.275,4.133,7.93,6.6c3.649,2.463,6.091,4.482,7.34,5.891c2.805,3.162,4.405,7.301,4.996,11.785
				c0.568,4.315,2.712,10.152,5.328,11.908c1.057,0.709,2.099-1.017,1.014-4.598c-0.838-2.539-1.267-3.806-2.139-6.334
				c-5.002-8.612-10.218-17.106-15.619-25.467c-5.624-8.705-11.915-17.313-17.453-25.72c-6.073-9.22-12.388-19.87-12.741-29.989
				c-0.152-4.354,2.055-9.012,4.936-12.141c2.334-2.535,8.946-4.498,9.669-5.588c0.866-1.307,0.205-7.894,2.375-10.269
				c3.099-3.391,8.726-3.948,16.032-2.671c2.699,0.472,7.373,3.229,13.375,8.843c6.003,5.615,11.681,6.348,13.514,6.394
				c2.327,0.058,7.548,5.13,11.44,9.547c4.244,4.815,5.789,10.806,6.554,11.858c0.811,1.115,6.015,3.705,9.396,7.928
				c1.217,1.52,1.819,2.283,3.025,3.816c0.654,2.246,1.565,4.631,2.719,7.166c1.755,2.75,2.62,4.135,4.339,6.919
				c3.615,4.416,5.402,6.657,8.929,11.207c3.846,4.524,5.746,6.823,9.503,11.502c3.07,6.938,4.691,15.341,4.682,25.022
				c-0.009,9.683,3.354,23.691,2.715,24.637c-0.482,0.713-8.987-1.615-16.258-5.691c-4.961-2.65-7.443-3.924-12.407-6.372
				c-0.518-1.514-2.135-4.505-4.913-8.873c-2.642-4.153-2.992-6.854-0.98-8.189c-4.006-8.747-6.1-13.063-10.468-21.571
				c-2.797-5.631-6.102-10.895-9.885-15.744c-5.048-6.472-11.766-13.673-15.634-14.293c-0.333-0.053-1.116,0.465-1.813,1.065
				c-0.872,0.751-1.367,2.253-1.505,4.502c-0.138,2.245,1.304,5.167,4.285,8.851c11.43,18.225,21.798,36.814,31.325,56.102
				C921.93,339.898,930.461,360.664,918.854,372.919z M903.6,230.65c-2.677-2.544-4.025-3.801-6.732-6.284
				c-1.475-1.633-4.402-4.188-5.8-4.139c-1.845,0.064-8.516-0.986-15.488-7.6c-6.447-6.116-12.027-9.67-16.472-9.59
				c-1.878,0.887-2.815,1.335-4.685,2.234c-0.987,1.063-1.48,1.594-2.468,2.657c-1.254,1.351-1.667,3.739-1.225,4.064
				c0.339,0.249,2.287,0.655,3.814,1.958c2.698,3.258,4.031,4.902,6.666,8.221c4.79,1.211,8.385,2.926,10.49,5.042
				s2.67,6.075,1.602,11.537c-1.068,5.457-0.405,10.048,2.037,13.867c1.708,0.677,2.561,1.021,4.27,1.719
				c5.515-3.836,8.28-5.744,13.825-9.54c3.009,0.122,5.288,1.099,6.796,2.9c1.006,1.202,2.188,4.408,3.432,9.617
				c1.244,5.207,2.986,9.03,5.324,11.508c2.546-0.198,3.82-0.289,6.378-0.456c1.572-0.211,4.209,0.535,6.088,2.368
				c6.009,5.861,9.215,17.82,6.694,27.514c-2.318,8.915-3.521,14.151-3.262,15.846c0.58-0.373,0.871-0.56,1.451-0.933
				c1.16-0.747,2.458-2.512,3.865-5.32c1.406-2.807,2.672-4.602,3.825-5.359c1.536-1.008,4.943-1.172,6.447,0.135
				c4.137,3.596,4.463,20.117,5.591,21.359c0.193,0.213,2.907-0.374,3.287-0.993c2.102-3.425-0.82-16.193-0.883-23.079
				c-0.034-3.734-0.624-8.482-3.369-12.606c-1.069-1.605-3.555-4.503-7.499-8.562c-3.95-4.063-6.816-7.239-8.572-9.639
				c-1.437-1.963-2.607-4.12-3.52-6.48c-1.788-3.524-2.695-5.278-4.543-8.764c-1.558-2.555-2.932-4.556-4.108-6.021
				c-2.02-2.514-5.068-3.841-6.811-4.795c-1.629-0.892-3.209-3.909-4.272-6.861C904.916,233.962,904.482,232.857,903.6,230.65z
				 M839.674,268.247c-1.547-0.246-2.317-0.365-3.86-0.594c-0.968-0.022-2.583,0.673-2.702,1.163
				c-0.396,1.618,1.829,7.44,1.95,12.038c-0.094,4.326-0.163,6.482-0.357,10.777c0.748,0.543,1.124,0.817,1.87,1.365
				c0.772-0.161,1.157-0.241,1.932-0.399c0.954-0.83,2.505-0.708,4.658,0.409c2.147,1.114,4.738,3.268,6.061,5.948
				c0.653,1.325,0.646,3.269,0.279,5.021c-0.466,2.291-0.703,3.434-1.195,5.711c1.242,1.581,3.085,2.438,4.926,2.118
				c1.559-0.271,3.491-0.359,4.444,0.423c3.233,2.651,4.755,8.357,4.31,13.576c-0.444,5.217-0.305,9.02,0.524,11.463
				c1.154-1.124,1.729-1.688,2.881-2.815c0.851-0.589,1.811-1.472,2.554-1.767c1.01-0.4,2.377-0.389,2.968-0.547
				c2.012-0.477,3.019-0.711,5.037-1.172c1.224-1.681,0.275-5.238-2.961-10.521c-3.239-5.287-2.303-9.144-2.022-10.032
				c0.277-0.881-1.685-4.011-2.955-5.688c-0.99-1.308-2.238-2.559-3.738-3.746c-3.063-2.035-4.598-3.029-7.674-4.977
				c-1.741-1.611-2.613-2.408-4.367-3.988c-1.752-2.119-3.5-5.488-3.068-6.87c0.307-0.982,0.378-3.835-2.404-7.514
				C843.969,273.833,842.551,271.957,839.674,268.247z M886.289,234.034c-1.028-0.109-2.405-1.122-4.144-3.01
				c-1.22-1.325-1.589-2.39-1.091-3.209C883.165,230.283,884.211,231.527,886.289,234.034z"/>
		</g>
	</g>
</g>
</svg>
