<?xml version="1.0" encoding="utf-8"?>
<!-- Generator: Adobe Illustrator 16.0.0, SVG Export Plug-In . SVG Version: 6.00 Build 0)  -->
<!DOCTYPE svg PUBLIC "-//W3C//DTD SVG 1.1//EN" "http://www.w3.org/Graphics/SVG/1.1/DTD/svg11.dtd">
<svg version="1.1" xmlns="http://www.w3.org/2000/svg" xmlns:xlink="http://www.w3.org/1999/xlink" x="0px" y="0px" width="500px"
	 height="500px" viewBox="0 0 500 500" enable-background="new 0 0 500 500" xml:space="preserve">
<g id="Capa_1">
	<path fill="#00FFFF" d="M251.929,118.291c-66.312,1.967-118.566,54.258-116.712,116.794c0.646,21.823,7.804,42.005,19.656,58.955
		c-6.505,0.324-12.971,2.84-18.198,7.604c-11.799,10.757-12.801,28.868-2.238,40.456c8.152,8.945,20.812,11.378,31.591,7.079
		l180.742,1.207c9.849,3.066,20.943,1.031,29.04-6.349c12.207-11.129,12.956-30.184,1.674-42.563
		c-5.551-6.089-12.979-9.419-20.546-9.916c12.273-18.39,19.106-40.278,18.415-63.595
		C373.499,165.427,318.24,116.326,251.929,118.291z"/>
	<path fill="#0ED8D8" d="M355.514,290.154c0,0,10.22-97.866-19.58-143.015c0,0,34.534,40.245,36.263,63.121
		C373.925,233.136,375.116,264.975,355.514,290.154z"/>
	<path fill="#0ED8D8" d="M351.554,351.451c0,0,28.505-42.613,9.921-58.482c0,0,32.419,9.674,22.558,38.271
		C378.674,346.777,366.253,352.584,351.554,351.451z"/>
	<path fill="#F2F2F2" stroke="#0ED8D8" stroke-miterlimit="10" d="M205.528,216.231c0.023-1.611-0.766-6.046-0.744-7.7
		c0.023-1.652,0.114-8.128,0.114-8.128l0.957-7.473c0,0,1.693-6.469,4.258-7.185c2.563-0.713,6.274,2.93,6.644,4.268
		c0.37,1.337,7.106,16.684,7.106,16.684s6.738-15.745,7.899-23.719c1.77-7.808,4.52-31.404,4.64-33.294
		c0,0,0.699-14.553-0.115-17.134c0,0-1.173-8.573-10.136-7.775l-7.166,1.262l-7.568,3.234c0,0-3.861,0.841-6.648-0.719l2.753,6.535
		l-6.594,3.669c0,0-1.454,0.247-1.667-2.649c0,0,0.032-4.082,0.061-4.397c-2.139,2.056-4.66,4.792-6.594,10.458
		c-0.766,2.198-1.63,8.353-1.606,9.037c-0.2,0.221-0.08,6.702,0.553,11.598l3.232,19.884c0,0,3.043,1.554,4.191,5.398l1.04,6.86
		l-3.433,21.872c0,0,0.057,4.955,0.94,6.905c0.881,1.948,4.501,6.16,4.648,5.978C202.44,229.52,204.793,222.872,205.528,216.231z
		 M216.543,153.75l-5.616-2.53c1.699-2.692,3.947-4.958,7.714-4.042c3.766,0.918,5.754,5.064,5.754,5.064l-0.042,1.882
		L216.543,153.75z"/>
	<path fill="#C2F2F1" d="M166.028,349.18c0,0-40.983-45.314-18.385-53.849c0,0-22.825,8.101-20.218,31.92
		C130.033,351.07,160.697,352.882,166.028,349.18z"/>
	<path fill="#C2F2F1" d="M154.873,294.04c0,0-20.625-94.271-1.01-122.896c0,0-21.458,37.832-18.689,61.442
		C137.944,256.195,138.57,268.765,154.873,294.04z"/>
	<path fill="none" stroke="#030000" stroke-width="3" stroke-miterlimit="10" d="M251.929,118.291
		c-66.312,1.967-118.566,54.258-116.712,116.794c0.646,21.823,7.804,42.005,19.656,58.955c-6.505,0.324-12.971,2.84-18.198,7.604
		c-11.799,10.757-12.801,28.868-2.238,40.456c8.152,8.945,20.812,11.378,31.591,7.079l180.742,1.207
		c9.849,3.066,20.943,1.031,29.04-6.349c12.207-11.129,12.956-30.184,1.674-42.563c-5.551-6.089-12.979-9.419-20.546-9.916
		c12.273-18.39,19.106-40.278,18.415-63.595C373.499,165.427,318.24,116.326,251.929,118.291z"/>
	<polyline display="none" fill="none" stroke="#000000" stroke-width="3" stroke-miterlimit="10" points="173.188,197.94 
		215.536,219.264 168.929,223.345 	"/>
	<polyline display="none" fill="none" stroke="#000000" stroke-width="3" stroke-miterlimit="10" points="327.837,195.461 
		287.507,216.776 333.575,220.706 	"/>
	<path display="none" fill="#FF0000" stroke="#000000" stroke-width="3" stroke-miterlimit="10" d="M255.13,256.275
		c0,0-14.543-13.244-3.371-23.425c11.172-10.18,25.085,7.859,25.085,7.859"/>
	
		<line display="none" fill="none" stroke="#000000" stroke-width="3" stroke-miterlimit="10" x1="268.232" y1="249.924" x2="258.875" y2="240.072"/>
	<path display="none" fill="none" stroke="#000000" stroke-width="3" stroke-miterlimit="10" d="M221.262,243.685
		c0,0,32.396,33.549,58.068-6.609"/>
	
		<line display="none" fill="#FF0000" stroke="#000000" stroke-width="3" stroke-miterlimit="10" x1="255.13" y1="256.275" x2="276.844" y2="240.71"/>
</g>
<g id="Capa_2">
	<g>
		<path d="M190.225,220.512c-0.292,12.55,8.317,22.952,19.227,23.234c10.91,0.281,19.992-9.664,20.283-22.215
			c0.291-12.55-8.317-22.954-19.229-23.236C199.596,198.014,190.514,207.959,190.225,220.512z"/>
		<g>
			<path d="M189.85,220.512c0.057,11.626,7.241,22.829,19.602,23.609c12.354,0.78,20.099-11.712,20.658-22.59
				c0.596-11.607-7.718-22.861-19.604-23.611C198.152,197.14,190.407,209.634,189.85,220.512c-0.025,0.483,0.726,0.481,0.75,0
				c0.572-11.173,7.936-21.705,19.906-21.842c11.968-0.137,18.802,12.358,18.854,22.861c0.055,11.185-8.402,21.709-19.908,21.84
				c-11.967,0.137-18.801-12.356-18.852-22.859C190.597,220.028,189.847,220.028,189.85,220.512z"/>
		</g>
	</g>
	<g>
		<path d="M278.417,222.787c-0.29,12.551,8.317,22.953,19.229,23.235c10.909,0.28,19.991-9.665,20.281-22.216
			c0.291-12.552-8.316-22.954-19.227-23.236C287.789,200.289,278.708,210.235,278.417,222.787z"/>
		<g>
			<path d="M278.042,222.787c0.059,11.627,7.242,22.83,19.604,23.61c12.354,0.78,20.099-11.714,20.656-22.591
				c0.595-11.606-7.715-22.86-19.602-23.611C286.346,199.415,278.601,211.909,278.042,222.787c-0.024,0.483,0.726,0.481,0.75,0
				c0.573-11.174,7.938-21.705,19.908-21.842c11.968-0.137,18.8,12.358,18.852,22.861c0.055,11.185-8.4,21.709-19.906,21.841
				c-11.968,0.138-18.801-12.358-18.854-22.86C278.789,222.303,278.039,222.303,278.042,222.787z"/>
		</g>
	</g>
	<path fill="#FFFFFF" stroke="#000000" stroke-width="0.5" stroke-miterlimit="10" d="M293.446,302.673
		c0.665-9.644-2.966-20.53-5.777-24.813c-8.864-17.283-29.215-18.78-34.195-19.018c-26.691-0.148-34.771,17.24-34.771,17.24
		s-5.561,11.404-6.041,24.508c-0.48,13.103,13.516,15.837,14.849,16.736c1.332,0.898,13.764-1.336,14.838-2.514
		c1.071-1.18,18.123-2.033,20.473,0.33c0.807,0.522,1.637,1.904,13.371,3.438C288.901,315.995,291.668,310.885,293.446,302.673z"/>
	<g>
		<path fill="#FFFFFF" d="M197.303,214.577c-0.161,6.952,4.736,12.717,10.939,12.875c6.202,0.161,11.359-5.345,11.52-12.296
			c0.164-6.95-4.735-12.715-10.936-12.875C202.623,202.121,197.465,207.627,197.303,214.577z"/>
		<g>
			<path d="M196.928,214.577c0.193,6.819,4.227,12.61,11.314,13.25c7.083,0.64,11.44-6.591,11.895-12.671
				c0.507-6.786-4.727-12.653-11.311-13.25C201.743,201.265,197.383,208.497,196.928,214.577c-0.036,0.483,0.714,0.479,0.75,0
				c0.476-6.358,4.461-11.662,11.148-11.92c6.713-0.26,10.401,6.79,10.561,12.5c0.178,6.361-4.926,11.681-11.145,11.921
				c-6.714,0.26-10.403-6.79-10.564-12.5C197.664,214.095,196.914,214.093,196.928,214.577z"/>
		</g>
	</g>
	<g>
		<path fill="#FFFFFF" d="M216.032,228.877c-0.021,0.834,0.57,1.527,1.317,1.544c0.747,0.02,1.368-0.64,1.388-1.474
			c0.02-0.834-0.571-1.526-1.316-1.545C216.673,227.382,216.051,228.043,216.032,228.877z"/>
		<g>
			<path d="M215.657,228.877c0.027,1.012,0.657,1.828,1.692,1.919c1.037,0.091,1.695-0.951,1.763-1.849
				c0.076-1.006-0.733-1.834-1.691-1.92C216.383,226.935,215.724,227.979,215.657,228.877c-0.036,0.483,0.714,0.479,0.75,0
				c0.043-0.582,0.399-1.077,1.014-1.1c0.618-0.023,0.927,0.659,0.941,1.17c0.017,0.581-0.442,1.077-1.013,1.099
				c-0.619,0.023-0.929-0.658-0.942-1.169C216.394,228.395,215.644,228.394,215.657,228.877z"/>
		</g>
	</g>
	<g>
		<path fill="#FFFFFF" d="M220.787,221.66c-0.037,1.627,1.039,2.978,2.402,3.013c1.364,0.035,2.5-1.257,2.538-2.886
			c0.037-1.63-1.037-2.977-2.402-3.011C221.962,218.74,220.826,220.031,220.787,221.66z"/>
		<g>
			<path d="M220.412,221.66c0.043,1.695,0.991,3.219,2.777,3.388c1.784,0.169,2.806-1.773,2.913-3.261
				c0.121-1.688-1.107-3.229-2.777-3.386C221.542,218.232,220.52,220.171,220.412,221.66c-0.035,0.483,0.715,0.479,0.75,0
				c0.091-1.253,0.793-2.45,2.163-2.509c1.369-0.059,1.999,1.535,2.027,2.636c0.032,1.254-0.883,2.455-2.163,2.511
				c-1.368,0.06-2-1.54-2.027-2.638C221.15,221.177,220.4,221.176,220.412,221.66z"/>
		</g>
	</g>
	<line stroke="#000000" stroke-miterlimit="10" x1="293.261" y1="303.046" x2="212.83" y2="300.974"/>
	<line stroke="#000000" stroke-miterlimit="10" x1="287.49" y1="277.855" x2="219.055" y2="276.09"/>
	<path fill="#FF0000" stroke="#000000" stroke-width="0.25" stroke-miterlimit="10" d="M226.357,301.797
		c-0.023-0.283-0.033-0.567-0.025-0.853c0.186-8.017,12.045-14.21,26.485-13.838c14.442,0.375,25.999,7.172,25.813,15.187
		c-0.006,0.271-0.025,0.539-0.059,0.805"/>
	<g>
		<polygon points="289.373,280.926 289.373,280.931 289.372,280.925 		"/>
		<g>
			<path d="M293.418,298.233c-0.002-0.06-0.012-0.122-0.029-0.164c0.003-0.089,0.006-0.206,0.011-0.289
				c0.003-0.055-0.001-0.155-0.015-0.198c0.01-0.031,0.029-0.17,0.027-0.21c-0.003-0.028,0.001-0.372-0.002-0.372h0.004
				c-0.071-0.985-0.043-1.424-0.296-2.191c0.006,0.059,0.011,0.173,0.006,0.139c-0.059-0.866-0.338-1.704-0.292-2.58
				c0.008-0.167-0.07-0.266-0.169-0.302c-0.005-0.088-0.02-0.174-0.023-0.262c-0.005-0.114-0.054-0.196-0.117-0.25
				c-0.042-0.183-0.084-0.366-0.125-0.548c0.048-0.085,0.058-0.192-0.004-0.307l-0.033-0.179c0.015-0.141-0.038-0.228-0.113-0.277
				c-0.008-0.039-0.009-0.077-0.019-0.117c-0.001-0.004-0.004-0.005-0.007-0.009c-0.01-0.074-0.021-0.147-0.032-0.221
				c0.006-0.041,0.003-0.086-0.014-0.134c0.005-0.103-0.023-0.18-0.063-0.234c-0.027-0.119-0.064-0.239-0.103-0.355
				c-0.007-0.02-0.004-0.045-0.013-0.063c-0.003-0.007-0.009-0.008-0.014-0.013c-0.017-0.052-0.027-0.105-0.048-0.156
				c-0.003-0.011-0.009-0.023-0.014-0.036c0.03-0.079,0.037-0.171,0.008-0.27c-0.053-0.151-0.114-0.295-0.185-0.431
				c-0.021-0.251-0.087-0.463-0.203-0.696c0.044-0.065,0.063-0.153,0.031-0.262c-0.205-0.74-0.446-1.462-0.743-2.155
				c-0.199-0.795-0.439-1.564-0.737-2.314c-0.026-0.066-0.07-0.105-0.113-0.13c-0.07-0.277-0.159-0.522-0.278-0.78
				c-0.018-0.033-0.044-0.043-0.065-0.067c-0.056-0.162-0.112-0.325-0.144-0.508c-0.016-0.087-0.054-0.146-0.1-0.183
				c-0.004-0.061-0.013-0.166-0.02-0.179c-0.004,0.016-0.007,0.129-0.01,0.123c-0.037-0.123-0.102-0.104-0.178-0.229
				c-0.496-1.056-0.966-2.112-1.637-3.036c-0.146-0.202-0.359-0.083-0.428,0.109c-0.12-0.066-0.26-0.111-0.422-0.118
				c-2.177-0.069-4.34-0.239-6.472,0.278c-0.295-0.004-0.589-0.005-0.887,0.002c-0.163-0.236-0.417-0.393-0.758-0.381
				c-1.883,0.052-3.765,0.012-5.646-0.039c-0.265-0.006-0.475,0.094-0.64,0.248c-5.784-0.406-11.58-0.383-17.373-0.502
				c-1.291-0.152-2.585-0.279-3.889-0.328c-0.387-0.014-0.739,0.037-1.063,0.141c-0.254-0.048-0.526-0.066-0.82-0.045
				c-0.431,0.03-0.865,0.057-1.304,0.076c-0.297-0.104-0.603-0.155-0.924-0.135c-0.464,0.033-0.924,0.06-1.39,0.078
				c-0.159-0.143-0.349-0.223-0.611-0.201c-0.418,0.035-0.804,0.057-1.221,0.081c-0.162-0.284-0.361-0.478-0.745-0.454
				c-5.384,0.3-11.208-0.021-16.146-0.148c-0.21-0.004-0.392,0.051-0.544,0.143c-1.88-0.771-4.116-1.044-6.002-0.15
				c-0.029-0.082-0.074-0.157-0.139-0.193c-0.314-0.166-0.572-0.29-0.877-0.479c-0.117-0.072-0.327-0.168-0.394,0
				c-0.096,0.242-0.178,0.488-0.262,0.733c-0.073,0.034-0.132,0.105-0.157,0.212c-0.124,0.076-0.15,0.251-0.094,0.393
				c-0.096,0.061-0.145,0.177-0.153,0.293c-0.146,0.282-0.281,0.583-0.4,0.918c-0.012,0.027-0.001,0.055-0.003,0.085
				c-0.049,0.06-0.075,0.13-0.082,0.2c-0.023,0.033-0.044,0.061-0.066,0.092c-0.033,0.048-0.049,0.102-0.059,0.151
				c-0.424,0.6-0.676,1.321-0.933,2.09c-0.174,0.532-0.381,1.056-0.464,1.646c-0.035,0.027-0.066,0.063-0.091,0.119
				c-0.493,1.188-0.849,2.434-1.116,3.72c-0.007,0.031-0.004,0.055-0.004,0.079c-0.086,0.182-0.182,0.378-0.186,0.569
				c-0.002,0.06,0.02,0.109,0.045,0.156c-0.045,0.156-0.088,0.313-0.139,0.47c-0.014,0.05-0.02,0.095-0.017,0.136
				c-0.132,0.302-0.245,0.617-0.308,0.962c-0.006,0.046-0.007,0.089-0.001,0.131c-0.102,0.362-0.188,0.736-0.236,1.123
				c-0.001,0.02,0.002,0.035,0.003,0.054c-0.106,0.281-0.208,0.563-0.318,0.842c-0.056,0.142-0.018,0.297,0.058,0.399
				c0,0.011-0.003,0.022-0.004,0.032c-0.072,0.241-0.145,0.481-0.215,0.721c-0.034,0.108-0.019,0.196,0.023,0.267
				c-0.04,0.173-0.087,0.347-0.121,0.526c-0.009,0.053-0.009,0.101-0.001,0.145c-0.06,0.259-0.113,0.518-0.153,0.782
				c-0.002,0.009,0.003,0.016,0.002,0.024c-0.094,0.082-0.145,0.244-0.104,0.385c-0.39,0.962-0.238,2.127-0.488,3.18
				c-0.038,0.16,0.021,0.282,0.108,0.35c0.002,0.006-0.001,0.016,0,0.024c-0.047,0.206-0.085,0.422-0.107,0.643
				c-0.008,0.069,0.012,0.125,0.038,0.174c-0.024,0.176-0.041,0.353-0.044,0.542c-0.001,0.033,0.006,0.063,0.014,0.09
				c-0.046,0.267-0.084,0.535-0.1,0.811c-0.003,0.061,0.011,0.118,0.036,0.164c-0.025,0.104-0.044,0.219-0.06,0.362
				c-0.001,0.012,0.002,0.019,0.003,0.03c-0.055,0.053-0.099,0.119-0.107,0.225c-0.004,0.093-0.015,0.189-0.029,0.281
				c-0.04,0.292,0.219,0.379,0.39,0.257c0.15-0.004,0.313-0.153,0.275-0.393c-0.083-0.551,1.943-0.123,2.75-0.331
				c0.624,0.605,2.031,0.453,2.744,0.471c0.639,0.018,1.478,0.122,2.206-0.016c0.047,0.005,0.09-0.006,0.127-0.026
				c0.233-0.055,0.454-0.135,0.649-0.258c0.008-0.004,0.01-0.014,0.017-0.018c0.748,0.063,1.493,0.219,2.244,0.281
				c0.556,0.047,1.325,0.189,1.848-0.167c0.041,0.333,0.492,0.316,0.521-0.066c0.047-0.613,0.115-1.221,0.18-1.826
				c0.01-0.034,0.02-0.071,0.029-0.105c0.076-0.096,0.138-0.236,0.186-0.36c0.155-0.068,0.17-0.272,0.099-0.429
				c0.325-0.516,0.512-1.129,0.84-1.642c0.041-0.06,0.05-0.116,0.051-0.174c0.362-0.497,0.774-0.952,1.16-1.417
				c0.03-0.038,0.051-0.079,0.065-0.123c0.332-0.26,0.658-0.537,0.968-0.824c0.21-0.192,0.645-0.512,0.786-0.886
				c0.544-0.254,1.075-0.583,1.515-1.042c0.034-0.002,0.072-0.014,0.109-0.034c0.134-0.08,0.265-0.164,0.393-0.26
				c0.048-0.038,0.077-0.086,0.099-0.138c0.057-0.027,0.094-0.029,0.111-0.09c0.018-0.011,0.04-0.021,0.058-0.033
				c1.012-0.163,2.175-0.75,3.009-1.463c0.019-0.004,0.034,0.002,0.054-0.006c1.016-0.487,2.07-0.827,3.126-1.159
				c0.254-0.021,0.498-0.074,0.743-0.185c0.072-0.034,0.119-0.092,0.148-0.159c0.443-0.091,0.901-0.132,1.339-0.234
				c0.051-0.014,0.092-0.044,0.125-0.083c0.063-0.012,0.128-0.027,0.198-0.045c0.023-0.006,0.044-0.019,0.063-0.033
				c0.505-0.089,1.052,0.004,1.485-0.329c0.335,0.11,0.662,0.072,0.977-0.145c0.008-0.003,0.012-0.014,0.021-0.021
				c0.027-0.004,0.061-0.01,0.089-0.015c0.081-0.005,0.161-0.019,0.243-0.02c0.048-0.002,0.088-0.018,0.123-0.04
				c0.319,0.01,0.638,0.009,0.96-0.026c0.095-0.011,0.161-0.075,0.204-0.151c0.109-0.009,0.219-0.014,0.329-0.023
				c0.034-0.002,0.063-0.014,0.092-0.03c0.249-0.007,0.495-0.015,0.743-0.032c0.018,0.005,0.029,0.019,0.049,0.018
				c0.271,0,0.536-0.032,0.8-0.113c0.013-0.003,0.018-0.018,0.028-0.023c0.02,0.005,0.037,0.012,0.055,0.012
				c0.203-0.019,0.398-0.025,0.599-0.013c0.063,0.005,0.112-0.022,0.153-0.061c0.57,0.045,1.143,0.069,1.704-0.059
				c0.03,0.017,0.066,0.027,0.105,0.021c0.035-0.004,0.069,0.001,0.102,0.001c0.023,0.009,0.045,0.019,0.076,0.019
				c0.354,0.001,0.704-0.037,1.061-0.025c0.043,0.001,0.08-0.006,0.113-0.024c1.347,0.054,2.689,0.067,4.032,0.26
				c0.062,0.005,0.101-0.008,0.14-0.035c0.452,0.077,0.891,0.163,1.347,0.197c0.023,0,0.012,0.028,0.029,0.026
				c0.45,0.062,0.848,0.205,1.293,0.297c0.052,0.01,0.019,0.107,0.034,0.126c0.001,0.003,0.002,0.005,0.002,0.005
				c0.072,0.091,0.34-0.076,0.453-0.044c0.592,0.159,1.303,0.13,1.903,0.187c0.028,0.055,0.067,0.112,0.131,0.136
				c0.581,0.191,1.168,0.242,1.762,0.361c0.059,0.014,0.097,0.033,0.143,0.01c0.164,0.049,0.071,0.039,0.243,0.043l0.207,0.052
				c0.043,0.001,0.079-0.005,0.117-0.01c0.138,0.07,0.275,0.119,0.415,0.152c0.032,0.022,0.061,0.049,0.096,0.069
				c0.241,0.142,0.515,0.201,0.785,0.194c0.212,0.106,0.437,0.185,0.672,0.19c0.115,0.066,0.241,0.12,0.377,0.163
				c0.269,0.204,0.605,0.312,0.948,0.314c0.128,0.116,0.279,0.207,0.453,0.261c0.266,0.28,0.636,0.457,1.063,0.457
				c0.041,0,0.081-0.007,0.122-0.013c0.263,0.355,0.711,0.538,1.165,0.541c0.266,0.147,0.521,0.292,0.758,0.428
				c0.195,0.111,0.391,0.221,0.586,0.33c0.446,0.459,0.894,0.652,1.34,0.791h0.001c0.194,0.292,0.482,0.521,0.838,0.619h0.001
				c0.063,0.111,0.118,0.229,0.212,0.322c0.153,0.153,0.335,0.26,0.527,0.332c0.422,0.474,0.896,0.85,1.37,1.238
				c0.135,0.168,0.261,0.354,0.375,0.559c0.049,0.09,0.115,0.138,0.181,0.151c0.008,0.01,0.014,0.021,0.021,0.034
				c0.067,0.12,0.164,0.163,0.251,0.151c0.101,0.164,0.199,0.326,0.302,0.485c0.035,0.048,0.073,0.073,0.11,0.09
				c0.158,0.235,0.319,0.466,0.503,0.676c0.076,0.188,0.165,0.363,0.268,0.534c0.031,0.099,0.057,0.199,0.087,0.299
				c0.038,0.117,0.114,0.148,0.197,0.15c0.106,0.318,0.198,0.645,0.307,0.958c0.032,0.095,0.086,0.146,0.143,0.166
				c0.033,0.265,0.071,0.528,0.134,0.789c0.024,0.109,0.082,0.169,0.145,0.202c0.051,0.279,0.084,0.56,0.112,0.84
				c-0.084,0.066-0.02,0.171,0.021,0.31c0.037,0.126-0.025,0.188-0.029,0.31l0.01,0.081c-0.001,0.088-0.022,0.146,0.003,0.209
				c0.002,0.008,0.012,0.017,0.025,0.024c-0.001,0.076,0.01,0.152,0.004,0.231c-0.01,0.203,0.166,0.381,0.329,0.32
				c0.217-0.079,0.437-0.133,0.65-0.213c0.353,0.22,0.822,0.202,1.159-0.062c0.014,0.01,0.023,0.029,0.041,0.034
				c0.575,0.152,1.133,0.21,1.726,0.22c0.1-0.004,0.17-0.063,0.212-0.141c0.521,0.103,1.043,0.222,1.541,0.229
				c1.024,0.014,2.047-0.032,3.071-0.021c0.096,0.002,0.161-0.051,0.207-0.123c1.26,0.101,2.528,0.006,3.778,0.271
				c0.133,0.025,0.237-0.06,0.292-0.174c0.249,0.044,0.498,0.067,0.749,0.053c0.181,0.191,0.352,0.392,0.507,0.616
				c0.22,0.318,0.604-0.131,0.386-0.447c-0.08-0.117-0.174-0.213-0.261-0.317c0.014-0.018,0.028-0.038,0.042-0.059
				c0.133,0.058,0.288-0.048,0.344-0.214C293.829,300.937,293.406,299.567,293.418,298.233z"/>
			<path d="M293.118,294.809c-0.003-0.025-0.006-0.043-0.009-0.031C293.113,294.789,293.114,294.797,293.118,294.809z"/>
		</g>
	</g>
	<g>
		<path fill="#FFFFFF" d="M306.865,223.879c-0.04,1.628,1.037,2.979,2.4,3.014c1.364,0.034,2.5-1.258,2.538-2.886
			c0.037-1.628-1.037-2.979-2.4-3.013C308.038,220.959,306.901,222.252,306.865,223.879z"/>
		<g>
			<path d="M306.49,223.879c0.04,1.695,0.989,3.22,2.775,3.389c1.783,0.169,2.807-1.773,2.913-3.261
				c0.121-1.687-1.106-3.23-2.775-3.388C307.619,220.452,306.596,222.39,306.49,223.879c-0.034,0.483,0.716,0.479,0.75,0
				c0.089-1.255,0.792-2.451,2.163-2.51c1.368-0.059,1.997,1.538,2.025,2.638c0.032,1.254-0.884,2.455-2.163,2.511
				c-1.369,0.06-1.999-1.54-2.025-2.639C307.229,223.396,306.479,223.396,306.49,223.879z"/>
		</g>
	</g>
	<g>
		<path fill="#FFFFFF" d="M284.086,216.816c-0.162,6.95,4.735,12.715,10.938,12.875c6.202,0.16,11.361-5.346,11.521-12.296
			c0.16-6.951-4.737-12.715-10.937-12.876C289.405,204.36,284.246,209.865,284.086,216.816z"/>
		<g>
			<path d="M283.711,216.816c0.191,6.818,4.227,12.608,11.313,13.25c7.083,0.641,11.442-6.591,11.896-12.671
				c0.506-6.785-4.729-12.653-11.312-13.251C288.525,203.501,284.165,210.737,283.711,216.816c-0.036,0.483,0.714,0.479,0.75,0
				c0.475-6.359,4.461-11.662,11.147-11.922c6.712-0.261,10.399,6.795,10.562,12.501c0.181,6.361-4.93,11.68-11.146,11.921
				c-6.713,0.26-10.402-6.791-10.563-12.5C284.447,216.334,283.697,216.333,283.711,216.816z"/>
		</g>
	</g>
	<g>
		<path fill="#FFFFFF" d="M303.518,231.135c-0.02,0.833,0.572,1.525,1.316,1.544c0.75,0.019,1.37-0.641,1.39-1.476
			c0.019-0.834-0.569-1.525-1.316-1.544C304.158,229.639,303.538,230.299,303.518,231.135z"/>
		<g>
			<path d="M303.143,231.135c0.028,1.01,0.658,1.826,1.691,1.919c1.038,0.094,1.697-0.953,1.765-1.851
				c0.075-1.006-0.733-1.833-1.691-1.919C303.868,229.19,303.211,230.237,303.143,231.135c-0.037,0.482,0.714,0.479,0.75,0
				c0.044-0.583,0.399-1.078,1.015-1.101c0.618-0.023,0.927,0.659,0.941,1.169c0.017,0.583-0.443,1.078-1.015,1.101
				c-0.616,0.024-0.927-0.66-0.941-1.169C303.879,230.653,303.129,230.651,303.143,231.135z"/>
		</g>
	</g>
	<path fill="none" stroke="#000000" stroke-miterlimit="10" d="M325.021,191.893c-21.289-4.148-41.233-2.79-41.7-23.238"/>
	<path fill="none" stroke="#000000" stroke-miterlimit="10" d="M190.871,187.569c24.188-2.696,46.6-0.391,48.096-19.197"/>
	<path fill="none" stroke="#000000" stroke-miterlimit="10" d="M320.397,244.055c25.125-17.919-1.089-40.507,0.97-41.749"/>
	<path fill="none" stroke="#000000" stroke-miterlimit="10" d="M190.216,199.247c-2.847,1.113-18.226,21.118-0.082,41.556"/>
</g>
<g id="Capa_3">
	<g opacity="0.8">
		
			<rect x="122.962" y="229.385" transform="matrix(0.7787 -0.6274 0.6274 0.7787 -101.7805 211.2274)" fill="#CCCCCC" width="251.115" height="40.999"/>
		<text transform="matrix(0.8251 -0.6648 0.6274 0.7787 185.8184 317.1406)" font-family="'MyriadPro-Regular'" font-size="35">NO IMAGEN</text>
	</g>
</g>
</svg>
